%TF.GenerationSoftware,KiCad,Pcbnew,9.0.4*%
%TF.CreationDate,2025-10-28T17:49:17+05:30*%
%TF.ProjectId,PCB,5043422e-6b69-4636-9164-5f7063625858,rev?*%
%TF.SameCoordinates,Original*%
%TF.FileFunction,Legend,Top*%
%TF.FilePolarity,Positive*%
%FSLAX46Y46*%
G04 Gerber Fmt 4.6, Leading zero omitted, Abs format (unit mm)*
G04 Created by KiCad (PCBNEW 9.0.4) date 2025-10-28 17:49:17*
%MOMM*%
%LPD*%
G01*
G04 APERTURE LIST*
G04 Aperture macros list*
%AMRoundRect*
0 Rectangle with rounded corners*
0 $1 Rounding radius*
0 $2 $3 $4 $5 $6 $7 $8 $9 X,Y pos of 4 corners*
0 Add a 4 corners polygon primitive as box body*
4,1,4,$2,$3,$4,$5,$6,$7,$8,$9,$2,$3,0*
0 Add four circle primitives for the rounded corners*
1,1,$1+$1,$2,$3*
1,1,$1+$1,$4,$5*
1,1,$1+$1,$6,$7*
1,1,$1+$1,$8,$9*
0 Add four rect primitives between the rounded corners*
20,1,$1+$1,$2,$3,$4,$5,0*
20,1,$1+$1,$4,$5,$6,$7,0*
20,1,$1+$1,$6,$7,$8,$9,0*
20,1,$1+$1,$8,$9,$2,$3,0*%
G04 Aperture macros list end*
%ADD10C,0.150000*%
%ADD11C,0.100000*%
%ADD12C,0.120000*%
%ADD13C,0.500000*%
%ADD14C,0.127000*%
%ADD15C,0.200000*%
%ADD16RoundRect,0.225000X-0.250000X0.225000X-0.250000X-0.225000X0.250000X-0.225000X0.250000X0.225000X0*%
%ADD17C,1.500000*%
%ADD18RoundRect,0.225000X-0.225000X-0.250000X0.225000X-0.250000X0.225000X0.250000X-0.225000X0.250000X0*%
%ADD19RoundRect,0.200000X-0.275000X0.200000X-0.275000X-0.200000X0.275000X-0.200000X0.275000X0.200000X0*%
%ADD20RoundRect,0.135000X0.185000X-0.135000X0.185000X0.135000X-0.185000X0.135000X-0.185000X-0.135000X0*%
%ADD21RoundRect,0.150000X0.150000X-0.512500X0.150000X0.512500X-0.150000X0.512500X-0.150000X-0.512500X0*%
%ADD22RoundRect,0.135000X-0.185000X0.135000X-0.185000X-0.135000X0.185000X-0.135000X0.185000X0.135000X0*%
%ADD23RoundRect,0.225000X0.225000X0.250000X-0.225000X0.250000X-0.225000X-0.250000X0.225000X-0.250000X0*%
%ADD24RoundRect,0.243750X0.456250X-0.243750X0.456250X0.243750X-0.456250X0.243750X-0.456250X-0.243750X0*%
%ADD25RoundRect,0.135000X0.135000X0.185000X-0.135000X0.185000X-0.135000X-0.185000X0.135000X-0.185000X0*%
%ADD26R,0.675000X0.250000*%
%ADD27R,0.250000X0.675000*%
%ADD28R,1.500000X1.500000*%
%ADD29R,1.000000X1.000000*%
%ADD30RoundRect,0.135000X-0.135000X-0.185000X0.135000X-0.185000X0.135000X0.185000X-0.135000X0.185000X0*%
%ADD31RoundRect,0.200000X-0.200000X-0.275000X0.200000X-0.275000X0.200000X0.275000X-0.200000X0.275000X0*%
%ADD32RoundRect,0.650000X-0.650000X0.650000X-0.650000X-0.650000X0.650000X-0.650000X0.650000X0.650000X0*%
%ADD33C,2.600000*%
%ADD34RoundRect,0.218750X0.256250X-0.218750X0.256250X0.218750X-0.256250X0.218750X-0.256250X-0.218750X0*%
%ADD35C,1.000000*%
%ADD36RoundRect,0.150000X0.150000X-0.825000X0.150000X0.825000X-0.150000X0.825000X-0.150000X-0.825000X0*%
%ADD37R,3.300000X2.410000*%
%ADD38RoundRect,0.150000X0.150000X-0.587500X0.150000X0.587500X-0.150000X0.587500X-0.150000X-0.587500X0*%
%ADD39RoundRect,0.200000X0.200000X0.275000X-0.200000X0.275000X-0.200000X-0.275000X0.200000X-0.275000X0*%
%ADD40R,1.800000X1.800000*%
%ADD41C,1.800000*%
%ADD42RoundRect,0.225000X0.250000X-0.225000X0.250000X0.225000X-0.250000X0.225000X-0.250000X-0.225000X0*%
%ADD43RoundRect,0.150000X-0.150000X0.825000X-0.150000X-0.825000X0.150000X-0.825000X0.150000X0.825000X0*%
%ADD44O,2.250000X1.500000*%
%ADD45RoundRect,0.075500X0.226500X-0.806500X0.226500X0.806500X-0.226500X0.806500X-0.226500X-0.806500X0*%
G04 APERTURE END LIST*
D10*
X138789160Y-68822200D02*
X138932017Y-68869819D01*
X138932017Y-68869819D02*
X139170112Y-68869819D01*
X139170112Y-68869819D02*
X139265350Y-68822200D01*
X139265350Y-68822200D02*
X139312969Y-68774580D01*
X139312969Y-68774580D02*
X139360588Y-68679342D01*
X139360588Y-68679342D02*
X139360588Y-68584104D01*
X139360588Y-68584104D02*
X139312969Y-68488866D01*
X139312969Y-68488866D02*
X139265350Y-68441247D01*
X139265350Y-68441247D02*
X139170112Y-68393628D01*
X139170112Y-68393628D02*
X138979636Y-68346009D01*
X138979636Y-68346009D02*
X138884398Y-68298390D01*
X138884398Y-68298390D02*
X138836779Y-68250771D01*
X138836779Y-68250771D02*
X138789160Y-68155533D01*
X138789160Y-68155533D02*
X138789160Y-68060295D01*
X138789160Y-68060295D02*
X138836779Y-67965057D01*
X138836779Y-67965057D02*
X138884398Y-67917438D01*
X138884398Y-67917438D02*
X138979636Y-67869819D01*
X138979636Y-67869819D02*
X139217731Y-67869819D01*
X139217731Y-67869819D02*
X139360588Y-67917438D01*
X139789160Y-68869819D02*
X139789160Y-67869819D01*
X139789160Y-67869819D02*
X140027255Y-67869819D01*
X140027255Y-67869819D02*
X140170112Y-67917438D01*
X140170112Y-67917438D02*
X140265350Y-68012676D01*
X140265350Y-68012676D02*
X140312969Y-68107914D01*
X140312969Y-68107914D02*
X140360588Y-68298390D01*
X140360588Y-68298390D02*
X140360588Y-68441247D01*
X140360588Y-68441247D02*
X140312969Y-68631723D01*
X140312969Y-68631723D02*
X140265350Y-68726961D01*
X140265350Y-68726961D02*
X140170112Y-68822200D01*
X140170112Y-68822200D02*
X140027255Y-68869819D01*
X140027255Y-68869819D02*
X139789160Y-68869819D01*
X140741541Y-68584104D02*
X141217731Y-68584104D01*
X140646303Y-68869819D02*
X140979636Y-67869819D01*
X140979636Y-67869819D02*
X141312969Y-68869819D01*
X186970112Y-74146009D02*
X187112969Y-74193628D01*
X187112969Y-74193628D02*
X187160588Y-74241247D01*
X187160588Y-74241247D02*
X187208207Y-74336485D01*
X187208207Y-74336485D02*
X187208207Y-74479342D01*
X187208207Y-74479342D02*
X187160588Y-74574580D01*
X187160588Y-74574580D02*
X187112969Y-74622200D01*
X187112969Y-74622200D02*
X187017731Y-74669819D01*
X187017731Y-74669819D02*
X186636779Y-74669819D01*
X186636779Y-74669819D02*
X186636779Y-73669819D01*
X186636779Y-73669819D02*
X186970112Y-73669819D01*
X186970112Y-73669819D02*
X187065350Y-73717438D01*
X187065350Y-73717438D02*
X187112969Y-73765057D01*
X187112969Y-73765057D02*
X187160588Y-73860295D01*
X187160588Y-73860295D02*
X187160588Y-73955533D01*
X187160588Y-73955533D02*
X187112969Y-74050771D01*
X187112969Y-74050771D02*
X187065350Y-74098390D01*
X187065350Y-74098390D02*
X186970112Y-74146009D01*
X186970112Y-74146009D02*
X186636779Y-74146009D01*
X187636779Y-74288866D02*
X188398684Y-74288866D01*
X188017731Y-74669819D02*
X188017731Y-73907914D01*
X134177800Y-65589160D02*
X134130180Y-65732017D01*
X134130180Y-65732017D02*
X134130180Y-65970112D01*
X134130180Y-65970112D02*
X134177800Y-66065350D01*
X134177800Y-66065350D02*
X134225419Y-66112969D01*
X134225419Y-66112969D02*
X134320657Y-66160588D01*
X134320657Y-66160588D02*
X134415895Y-66160588D01*
X134415895Y-66160588D02*
X134511133Y-66112969D01*
X134511133Y-66112969D02*
X134558752Y-66065350D01*
X134558752Y-66065350D02*
X134606371Y-65970112D01*
X134606371Y-65970112D02*
X134653990Y-65779636D01*
X134653990Y-65779636D02*
X134701609Y-65684398D01*
X134701609Y-65684398D02*
X134749228Y-65636779D01*
X134749228Y-65636779D02*
X134844466Y-65589160D01*
X134844466Y-65589160D02*
X134939704Y-65589160D01*
X134939704Y-65589160D02*
X135034942Y-65636779D01*
X135034942Y-65636779D02*
X135082561Y-65684398D01*
X135082561Y-65684398D02*
X135130180Y-65779636D01*
X135130180Y-65779636D02*
X135130180Y-66017731D01*
X135130180Y-66017731D02*
X135082561Y-66160588D01*
X134225419Y-67160588D02*
X134177800Y-67112969D01*
X134177800Y-67112969D02*
X134130180Y-66970112D01*
X134130180Y-66970112D02*
X134130180Y-66874874D01*
X134130180Y-66874874D02*
X134177800Y-66732017D01*
X134177800Y-66732017D02*
X134273038Y-66636779D01*
X134273038Y-66636779D02*
X134368276Y-66589160D01*
X134368276Y-66589160D02*
X134558752Y-66541541D01*
X134558752Y-66541541D02*
X134701609Y-66541541D01*
X134701609Y-66541541D02*
X134892085Y-66589160D01*
X134892085Y-66589160D02*
X134987323Y-66636779D01*
X134987323Y-66636779D02*
X135082561Y-66732017D01*
X135082561Y-66732017D02*
X135130180Y-66874874D01*
X135130180Y-66874874D02*
X135130180Y-66970112D01*
X135130180Y-66970112D02*
X135082561Y-67112969D01*
X135082561Y-67112969D02*
X135034942Y-67160588D01*
X134130180Y-68065350D02*
X134130180Y-67589160D01*
X134130180Y-67589160D02*
X135130180Y-67589160D01*
X153869819Y-76563220D02*
X152869819Y-76563220D01*
X153346009Y-76563220D02*
X153346009Y-75991792D01*
X153869819Y-75991792D02*
X152869819Y-75991792D01*
X153584104Y-75563220D02*
X153584104Y-75087030D01*
X153869819Y-75658458D02*
X152869819Y-75325125D01*
X152869819Y-75325125D02*
X153869819Y-74991792D01*
X153869819Y-74182268D02*
X153869819Y-74658458D01*
X153869819Y-74658458D02*
X152869819Y-74658458D01*
X153869819Y-73372744D02*
X153869819Y-73848934D01*
X153869819Y-73848934D02*
X152869819Y-73848934D01*
X152569819Y-76663220D02*
X151569819Y-76663220D01*
X152569819Y-75615602D02*
X152093628Y-75948935D01*
X152569819Y-76187030D02*
X151569819Y-76187030D01*
X151569819Y-76187030D02*
X151569819Y-75806078D01*
X151569819Y-75806078D02*
X151617438Y-75710840D01*
X151617438Y-75710840D02*
X151665057Y-75663221D01*
X151665057Y-75663221D02*
X151760295Y-75615602D01*
X151760295Y-75615602D02*
X151903152Y-75615602D01*
X151903152Y-75615602D02*
X151998390Y-75663221D01*
X151998390Y-75663221D02*
X152046009Y-75710840D01*
X152046009Y-75710840D02*
X152093628Y-75806078D01*
X152093628Y-75806078D02*
X152093628Y-76187030D01*
X152665057Y-75425126D02*
X152665057Y-74663221D01*
X151569819Y-74234649D02*
X151569819Y-74044173D01*
X151569819Y-74044173D02*
X151617438Y-73948935D01*
X151617438Y-73948935D02*
X151712676Y-73853697D01*
X151712676Y-73853697D02*
X151903152Y-73806078D01*
X151903152Y-73806078D02*
X152236485Y-73806078D01*
X152236485Y-73806078D02*
X152426961Y-73853697D01*
X152426961Y-73853697D02*
X152522200Y-73948935D01*
X152522200Y-73948935D02*
X152569819Y-74044173D01*
X152569819Y-74044173D02*
X152569819Y-74234649D01*
X152569819Y-74234649D02*
X152522200Y-74329887D01*
X152522200Y-74329887D02*
X152426961Y-74425125D01*
X152426961Y-74425125D02*
X152236485Y-74472744D01*
X152236485Y-74472744D02*
X151903152Y-74472744D01*
X151903152Y-74472744D02*
X151712676Y-74425125D01*
X151712676Y-74425125D02*
X151617438Y-74329887D01*
X151617438Y-74329887D02*
X151569819Y-74234649D01*
X152569819Y-73377506D02*
X151569819Y-73377506D01*
X151569819Y-73377506D02*
X152569819Y-72806078D01*
X152569819Y-72806078D02*
X151569819Y-72806078D01*
X180470112Y-66946009D02*
X180612969Y-66993628D01*
X180612969Y-66993628D02*
X180660588Y-67041247D01*
X180660588Y-67041247D02*
X180708207Y-67136485D01*
X180708207Y-67136485D02*
X180708207Y-67279342D01*
X180708207Y-67279342D02*
X180660588Y-67374580D01*
X180660588Y-67374580D02*
X180612969Y-67422200D01*
X180612969Y-67422200D02*
X180517731Y-67469819D01*
X180517731Y-67469819D02*
X180136779Y-67469819D01*
X180136779Y-67469819D02*
X180136779Y-66469819D01*
X180136779Y-66469819D02*
X180470112Y-66469819D01*
X180470112Y-66469819D02*
X180565350Y-66517438D01*
X180565350Y-66517438D02*
X180612969Y-66565057D01*
X180612969Y-66565057D02*
X180660588Y-66660295D01*
X180660588Y-66660295D02*
X180660588Y-66755533D01*
X180660588Y-66755533D02*
X180612969Y-66850771D01*
X180612969Y-66850771D02*
X180565350Y-66898390D01*
X180565350Y-66898390D02*
X180470112Y-66946009D01*
X180470112Y-66946009D02*
X180136779Y-66946009D01*
X181136779Y-66946009D02*
X181470112Y-66946009D01*
X181612969Y-67469819D02*
X181136779Y-67469819D01*
X181136779Y-67469819D02*
X181136779Y-66469819D01*
X181136779Y-66469819D02*
X181612969Y-66469819D01*
X182184398Y-66469819D02*
X182184398Y-66707914D01*
X181946303Y-66612676D02*
X182184398Y-66707914D01*
X182184398Y-66707914D02*
X182422493Y-66612676D01*
X182041541Y-66898390D02*
X182184398Y-66707914D01*
X182184398Y-66707914D02*
X182327255Y-66898390D01*
D11*
X156189598Y-65472419D02*
X156189598Y-66186704D01*
X156189598Y-66186704D02*
X156141979Y-66329561D01*
X156141979Y-66329561D02*
X156046741Y-66424800D01*
X156046741Y-66424800D02*
X155903884Y-66472419D01*
X155903884Y-66472419D02*
X155808646Y-66472419D01*
X157141979Y-66472419D02*
X156665789Y-66472419D01*
X156665789Y-66472419D02*
X156665789Y-65472419D01*
X158046741Y-66377180D02*
X157999122Y-66424800D01*
X157999122Y-66424800D02*
X157856265Y-66472419D01*
X157856265Y-66472419D02*
X157761027Y-66472419D01*
X157761027Y-66472419D02*
X157618170Y-66424800D01*
X157618170Y-66424800D02*
X157522932Y-66329561D01*
X157522932Y-66329561D02*
X157475313Y-66234323D01*
X157475313Y-66234323D02*
X157427694Y-66043847D01*
X157427694Y-66043847D02*
X157427694Y-65900990D01*
X157427694Y-65900990D02*
X157475313Y-65710514D01*
X157475313Y-65710514D02*
X157522932Y-65615276D01*
X157522932Y-65615276D02*
X157618170Y-65520038D01*
X157618170Y-65520038D02*
X157761027Y-65472419D01*
X157761027Y-65472419D02*
X157856265Y-65472419D01*
X157856265Y-65472419D02*
X157999122Y-65520038D01*
X157999122Y-65520038D02*
X158046741Y-65567657D01*
X158761027Y-65472419D02*
X158761027Y-66186704D01*
X158761027Y-66186704D02*
X158713408Y-66329561D01*
X158713408Y-66329561D02*
X158618170Y-66424800D01*
X158618170Y-66424800D02*
X158475313Y-66472419D01*
X158475313Y-66472419D02*
X158380075Y-66472419D01*
X159713408Y-66472419D02*
X159237218Y-66472419D01*
X159237218Y-66472419D02*
X159237218Y-65472419D01*
X160618170Y-66377180D02*
X160570551Y-66424800D01*
X160570551Y-66424800D02*
X160427694Y-66472419D01*
X160427694Y-66472419D02*
X160332456Y-66472419D01*
X160332456Y-66472419D02*
X160189599Y-66424800D01*
X160189599Y-66424800D02*
X160094361Y-66329561D01*
X160094361Y-66329561D02*
X160046742Y-66234323D01*
X160046742Y-66234323D02*
X159999123Y-66043847D01*
X159999123Y-66043847D02*
X159999123Y-65900990D01*
X159999123Y-65900990D02*
X160046742Y-65710514D01*
X160046742Y-65710514D02*
X160094361Y-65615276D01*
X160094361Y-65615276D02*
X160189599Y-65520038D01*
X160189599Y-65520038D02*
X160332456Y-65472419D01*
X160332456Y-65472419D02*
X160427694Y-65472419D01*
X160427694Y-65472419D02*
X160570551Y-65520038D01*
X160570551Y-65520038D02*
X160618170Y-65567657D01*
X161332456Y-65472419D02*
X161332456Y-66186704D01*
X161332456Y-66186704D02*
X161284837Y-66329561D01*
X161284837Y-66329561D02*
X161189599Y-66424800D01*
X161189599Y-66424800D02*
X161046742Y-66472419D01*
X161046742Y-66472419D02*
X160951504Y-66472419D01*
X162284837Y-66472419D02*
X161808647Y-66472419D01*
X161808647Y-66472419D02*
X161808647Y-65472419D01*
X163189599Y-66377180D02*
X163141980Y-66424800D01*
X163141980Y-66424800D02*
X162999123Y-66472419D01*
X162999123Y-66472419D02*
X162903885Y-66472419D01*
X162903885Y-66472419D02*
X162761028Y-66424800D01*
X162761028Y-66424800D02*
X162665790Y-66329561D01*
X162665790Y-66329561D02*
X162618171Y-66234323D01*
X162618171Y-66234323D02*
X162570552Y-66043847D01*
X162570552Y-66043847D02*
X162570552Y-65900990D01*
X162570552Y-65900990D02*
X162618171Y-65710514D01*
X162618171Y-65710514D02*
X162665790Y-65615276D01*
X162665790Y-65615276D02*
X162761028Y-65520038D01*
X162761028Y-65520038D02*
X162903885Y-65472419D01*
X162903885Y-65472419D02*
X162999123Y-65472419D01*
X162999123Y-65472419D02*
X163141980Y-65520038D01*
X163141980Y-65520038D02*
X163189599Y-65567657D01*
X163903885Y-65472419D02*
X163903885Y-66186704D01*
X163903885Y-66186704D02*
X163856266Y-66329561D01*
X163856266Y-66329561D02*
X163761028Y-66424800D01*
X163761028Y-66424800D02*
X163618171Y-66472419D01*
X163618171Y-66472419D02*
X163522933Y-66472419D01*
X164856266Y-66472419D02*
X164380076Y-66472419D01*
X164380076Y-66472419D02*
X164380076Y-65472419D01*
X165761028Y-66377180D02*
X165713409Y-66424800D01*
X165713409Y-66424800D02*
X165570552Y-66472419D01*
X165570552Y-66472419D02*
X165475314Y-66472419D01*
X165475314Y-66472419D02*
X165332457Y-66424800D01*
X165332457Y-66424800D02*
X165237219Y-66329561D01*
X165237219Y-66329561D02*
X165189600Y-66234323D01*
X165189600Y-66234323D02*
X165141981Y-66043847D01*
X165141981Y-66043847D02*
X165141981Y-65900990D01*
X165141981Y-65900990D02*
X165189600Y-65710514D01*
X165189600Y-65710514D02*
X165237219Y-65615276D01*
X165237219Y-65615276D02*
X165332457Y-65520038D01*
X165332457Y-65520038D02*
X165475314Y-65472419D01*
X165475314Y-65472419D02*
X165570552Y-65472419D01*
X165570552Y-65472419D02*
X165713409Y-65520038D01*
X165713409Y-65520038D02*
X165761028Y-65567657D01*
D10*
X153219819Y-81713220D02*
X152219819Y-81713220D01*
X153219819Y-80665602D02*
X152743628Y-80998935D01*
X153219819Y-81237030D02*
X152219819Y-81237030D01*
X152219819Y-81237030D02*
X152219819Y-80856078D01*
X152219819Y-80856078D02*
X152267438Y-80760840D01*
X152267438Y-80760840D02*
X152315057Y-80713221D01*
X152315057Y-80713221D02*
X152410295Y-80665602D01*
X152410295Y-80665602D02*
X152553152Y-80665602D01*
X152553152Y-80665602D02*
X152648390Y-80713221D01*
X152648390Y-80713221D02*
X152696009Y-80760840D01*
X152696009Y-80760840D02*
X152743628Y-80856078D01*
X152743628Y-80856078D02*
X152743628Y-81237030D01*
X152838866Y-80237030D02*
X152838866Y-79475126D01*
X153219819Y-79856078D02*
X152457914Y-79856078D01*
D11*
X173656265Y-82224800D02*
X173799122Y-82272419D01*
X173799122Y-82272419D02*
X174037217Y-82272419D01*
X174037217Y-82272419D02*
X174132455Y-82224800D01*
X174132455Y-82224800D02*
X174180074Y-82177180D01*
X174180074Y-82177180D02*
X174227693Y-82081942D01*
X174227693Y-82081942D02*
X174227693Y-81986704D01*
X174227693Y-81986704D02*
X174180074Y-81891466D01*
X174180074Y-81891466D02*
X174132455Y-81843847D01*
X174132455Y-81843847D02*
X174037217Y-81796228D01*
X174037217Y-81796228D02*
X173846741Y-81748609D01*
X173846741Y-81748609D02*
X173751503Y-81700990D01*
X173751503Y-81700990D02*
X173703884Y-81653371D01*
X173703884Y-81653371D02*
X173656265Y-81558133D01*
X173656265Y-81558133D02*
X173656265Y-81462895D01*
X173656265Y-81462895D02*
X173703884Y-81367657D01*
X173703884Y-81367657D02*
X173751503Y-81320038D01*
X173751503Y-81320038D02*
X173846741Y-81272419D01*
X173846741Y-81272419D02*
X174084836Y-81272419D01*
X174084836Y-81272419D02*
X174227693Y-81320038D01*
X174656265Y-82272419D02*
X174656265Y-81272419D01*
X174656265Y-81272419D02*
X174989598Y-81986704D01*
X174989598Y-81986704D02*
X175322931Y-81272419D01*
X175322931Y-81272419D02*
X175322931Y-82272419D01*
X175751503Y-81986704D02*
X176227693Y-81986704D01*
X175656265Y-82272419D02*
X175989598Y-81272419D01*
X175989598Y-81272419D02*
X176322931Y-82272419D01*
X177227693Y-82272419D02*
X176894360Y-81796228D01*
X176656265Y-82272419D02*
X176656265Y-81272419D01*
X176656265Y-81272419D02*
X177037217Y-81272419D01*
X177037217Y-81272419D02*
X177132455Y-81320038D01*
X177132455Y-81320038D02*
X177180074Y-81367657D01*
X177180074Y-81367657D02*
X177227693Y-81462895D01*
X177227693Y-81462895D02*
X177227693Y-81605752D01*
X177227693Y-81605752D02*
X177180074Y-81700990D01*
X177180074Y-81700990D02*
X177132455Y-81748609D01*
X177132455Y-81748609D02*
X177037217Y-81796228D01*
X177037217Y-81796228D02*
X176656265Y-81796228D01*
X177513408Y-81272419D02*
X178084836Y-81272419D01*
X177799122Y-82272419D02*
X177799122Y-81272419D01*
X179513408Y-81748609D02*
X179656265Y-81796228D01*
X179656265Y-81796228D02*
X179703884Y-81843847D01*
X179703884Y-81843847D02*
X179751503Y-81939085D01*
X179751503Y-81939085D02*
X179751503Y-82081942D01*
X179751503Y-82081942D02*
X179703884Y-82177180D01*
X179703884Y-82177180D02*
X179656265Y-82224800D01*
X179656265Y-82224800D02*
X179561027Y-82272419D01*
X179561027Y-82272419D02*
X179180075Y-82272419D01*
X179180075Y-82272419D02*
X179180075Y-81272419D01*
X179180075Y-81272419D02*
X179513408Y-81272419D01*
X179513408Y-81272419D02*
X179608646Y-81320038D01*
X179608646Y-81320038D02*
X179656265Y-81367657D01*
X179656265Y-81367657D02*
X179703884Y-81462895D01*
X179703884Y-81462895D02*
X179703884Y-81558133D01*
X179703884Y-81558133D02*
X179656265Y-81653371D01*
X179656265Y-81653371D02*
X179608646Y-81700990D01*
X179608646Y-81700990D02*
X179513408Y-81748609D01*
X179513408Y-81748609D02*
X179180075Y-81748609D01*
X180370551Y-81272419D02*
X180561027Y-81272419D01*
X180561027Y-81272419D02*
X180656265Y-81320038D01*
X180656265Y-81320038D02*
X180751503Y-81415276D01*
X180751503Y-81415276D02*
X180799122Y-81605752D01*
X180799122Y-81605752D02*
X180799122Y-81939085D01*
X180799122Y-81939085D02*
X180751503Y-82129561D01*
X180751503Y-82129561D02*
X180656265Y-82224800D01*
X180656265Y-82224800D02*
X180561027Y-82272419D01*
X180561027Y-82272419D02*
X180370551Y-82272419D01*
X180370551Y-82272419D02*
X180275313Y-82224800D01*
X180275313Y-82224800D02*
X180180075Y-82129561D01*
X180180075Y-82129561D02*
X180132456Y-81939085D01*
X180132456Y-81939085D02*
X180132456Y-81605752D01*
X180132456Y-81605752D02*
X180180075Y-81415276D01*
X180180075Y-81415276D02*
X180275313Y-81320038D01*
X180275313Y-81320038D02*
X180370551Y-81272419D01*
X181084837Y-81272419D02*
X181656265Y-81272419D01*
X181370551Y-82272419D02*
X181370551Y-81272419D01*
X181846742Y-81272419D02*
X182418170Y-81272419D01*
X182132456Y-82272419D02*
X182132456Y-81272419D01*
X183227694Y-82272419D02*
X182751504Y-82272419D01*
X182751504Y-82272419D02*
X182751504Y-81272419D01*
X183561028Y-81748609D02*
X183894361Y-81748609D01*
X184037218Y-82272419D02*
X183561028Y-82272419D01*
X183561028Y-82272419D02*
X183561028Y-81272419D01*
X183561028Y-81272419D02*
X184037218Y-81272419D01*
D10*
X164636779Y-80669819D02*
X164636779Y-79669819D01*
X165684397Y-80669819D02*
X165351064Y-80193628D01*
X165112969Y-80669819D02*
X165112969Y-79669819D01*
X165112969Y-79669819D02*
X165493921Y-79669819D01*
X165493921Y-79669819D02*
X165589159Y-79717438D01*
X165589159Y-79717438D02*
X165636778Y-79765057D01*
X165636778Y-79765057D02*
X165684397Y-79860295D01*
X165684397Y-79860295D02*
X165684397Y-80003152D01*
X165684397Y-80003152D02*
X165636778Y-80098390D01*
X165636778Y-80098390D02*
X165589159Y-80146009D01*
X165589159Y-80146009D02*
X165493921Y-80193628D01*
X165493921Y-80193628D02*
X165112969Y-80193628D01*
X166065350Y-80384104D02*
X166541540Y-80384104D01*
X165970112Y-80669819D02*
X166303445Y-79669819D01*
X166303445Y-79669819D02*
X166636778Y-80669819D01*
X157333333Y-77084580D02*
X157285714Y-77132200D01*
X157285714Y-77132200D02*
X157142857Y-77179819D01*
X157142857Y-77179819D02*
X157047619Y-77179819D01*
X157047619Y-77179819D02*
X156904762Y-77132200D01*
X156904762Y-77132200D02*
X156809524Y-77036961D01*
X156809524Y-77036961D02*
X156761905Y-76941723D01*
X156761905Y-76941723D02*
X156714286Y-76751247D01*
X156714286Y-76751247D02*
X156714286Y-76608390D01*
X156714286Y-76608390D02*
X156761905Y-76417914D01*
X156761905Y-76417914D02*
X156809524Y-76322676D01*
X156809524Y-76322676D02*
X156904762Y-76227438D01*
X156904762Y-76227438D02*
X157047619Y-76179819D01*
X157047619Y-76179819D02*
X157142857Y-76179819D01*
X157142857Y-76179819D02*
X157285714Y-76227438D01*
X157285714Y-76227438D02*
X157333333Y-76275057D01*
X157904762Y-76608390D02*
X157809524Y-76560771D01*
X157809524Y-76560771D02*
X157761905Y-76513152D01*
X157761905Y-76513152D02*
X157714286Y-76417914D01*
X157714286Y-76417914D02*
X157714286Y-76370295D01*
X157714286Y-76370295D02*
X157761905Y-76275057D01*
X157761905Y-76275057D02*
X157809524Y-76227438D01*
X157809524Y-76227438D02*
X157904762Y-76179819D01*
X157904762Y-76179819D02*
X158095238Y-76179819D01*
X158095238Y-76179819D02*
X158190476Y-76227438D01*
X158190476Y-76227438D02*
X158238095Y-76275057D01*
X158238095Y-76275057D02*
X158285714Y-76370295D01*
X158285714Y-76370295D02*
X158285714Y-76417914D01*
X158285714Y-76417914D02*
X158238095Y-76513152D01*
X158238095Y-76513152D02*
X158190476Y-76560771D01*
X158190476Y-76560771D02*
X158095238Y-76608390D01*
X158095238Y-76608390D02*
X157904762Y-76608390D01*
X157904762Y-76608390D02*
X157809524Y-76656009D01*
X157809524Y-76656009D02*
X157761905Y-76703628D01*
X157761905Y-76703628D02*
X157714286Y-76798866D01*
X157714286Y-76798866D02*
X157714286Y-76989342D01*
X157714286Y-76989342D02*
X157761905Y-77084580D01*
X157761905Y-77084580D02*
X157809524Y-77132200D01*
X157809524Y-77132200D02*
X157904762Y-77179819D01*
X157904762Y-77179819D02*
X158095238Y-77179819D01*
X158095238Y-77179819D02*
X158190476Y-77132200D01*
X158190476Y-77132200D02*
X158238095Y-77084580D01*
X158238095Y-77084580D02*
X158285714Y-76989342D01*
X158285714Y-76989342D02*
X158285714Y-76798866D01*
X158285714Y-76798866D02*
X158238095Y-76703628D01*
X158238095Y-76703628D02*
X158190476Y-76656009D01*
X158190476Y-76656009D02*
X158095238Y-76608390D01*
X181233333Y-78359580D02*
X181185714Y-78407200D01*
X181185714Y-78407200D02*
X181042857Y-78454819D01*
X181042857Y-78454819D02*
X180947619Y-78454819D01*
X180947619Y-78454819D02*
X180804762Y-78407200D01*
X180804762Y-78407200D02*
X180709524Y-78311961D01*
X180709524Y-78311961D02*
X180661905Y-78216723D01*
X180661905Y-78216723D02*
X180614286Y-78026247D01*
X180614286Y-78026247D02*
X180614286Y-77883390D01*
X180614286Y-77883390D02*
X180661905Y-77692914D01*
X180661905Y-77692914D02*
X180709524Y-77597676D01*
X180709524Y-77597676D02*
X180804762Y-77502438D01*
X180804762Y-77502438D02*
X180947619Y-77454819D01*
X180947619Y-77454819D02*
X181042857Y-77454819D01*
X181042857Y-77454819D02*
X181185714Y-77502438D01*
X181185714Y-77502438D02*
X181233333Y-77550057D01*
X181614286Y-77550057D02*
X181661905Y-77502438D01*
X181661905Y-77502438D02*
X181757143Y-77454819D01*
X181757143Y-77454819D02*
X181995238Y-77454819D01*
X181995238Y-77454819D02*
X182090476Y-77502438D01*
X182090476Y-77502438D02*
X182138095Y-77550057D01*
X182138095Y-77550057D02*
X182185714Y-77645295D01*
X182185714Y-77645295D02*
X182185714Y-77740533D01*
X182185714Y-77740533D02*
X182138095Y-77883390D01*
X182138095Y-77883390D02*
X181566667Y-78454819D01*
X181566667Y-78454819D02*
X182185714Y-78454819D01*
X148485714Y-54362295D02*
X148219047Y-53981342D01*
X148028571Y-54362295D02*
X148028571Y-53562295D01*
X148028571Y-53562295D02*
X148333333Y-53562295D01*
X148333333Y-53562295D02*
X148409523Y-53600390D01*
X148409523Y-53600390D02*
X148447618Y-53638485D01*
X148447618Y-53638485D02*
X148485714Y-53714676D01*
X148485714Y-53714676D02*
X148485714Y-53828961D01*
X148485714Y-53828961D02*
X148447618Y-53905152D01*
X148447618Y-53905152D02*
X148409523Y-53943247D01*
X148409523Y-53943247D02*
X148333333Y-53981342D01*
X148333333Y-53981342D02*
X148028571Y-53981342D01*
X149247618Y-54362295D02*
X148790475Y-54362295D01*
X149019047Y-54362295D02*
X149019047Y-53562295D01*
X149019047Y-53562295D02*
X148942856Y-53676580D01*
X148942856Y-53676580D02*
X148866666Y-53752771D01*
X148866666Y-53752771D02*
X148790475Y-53790866D01*
X149933333Y-53562295D02*
X149780952Y-53562295D01*
X149780952Y-53562295D02*
X149704761Y-53600390D01*
X149704761Y-53600390D02*
X149666666Y-53638485D01*
X149666666Y-53638485D02*
X149590476Y-53752771D01*
X149590476Y-53752771D02*
X149552380Y-53905152D01*
X149552380Y-53905152D02*
X149552380Y-54209914D01*
X149552380Y-54209914D02*
X149590476Y-54286104D01*
X149590476Y-54286104D02*
X149628571Y-54324200D01*
X149628571Y-54324200D02*
X149704761Y-54362295D01*
X149704761Y-54362295D02*
X149857142Y-54362295D01*
X149857142Y-54362295D02*
X149933333Y-54324200D01*
X149933333Y-54324200D02*
X149971428Y-54286104D01*
X149971428Y-54286104D02*
X150009523Y-54209914D01*
X150009523Y-54209914D02*
X150009523Y-54019438D01*
X150009523Y-54019438D02*
X149971428Y-53943247D01*
X149971428Y-53943247D02*
X149933333Y-53905152D01*
X149933333Y-53905152D02*
X149857142Y-53867057D01*
X149857142Y-53867057D02*
X149704761Y-53867057D01*
X149704761Y-53867057D02*
X149628571Y-53905152D01*
X149628571Y-53905152D02*
X149590476Y-53943247D01*
X149590476Y-53943247D02*
X149552380Y-54019438D01*
X142554819Y-65986666D02*
X142078628Y-66319999D01*
X142554819Y-66558094D02*
X141554819Y-66558094D01*
X141554819Y-66558094D02*
X141554819Y-66177142D01*
X141554819Y-66177142D02*
X141602438Y-66081904D01*
X141602438Y-66081904D02*
X141650057Y-66034285D01*
X141650057Y-66034285D02*
X141745295Y-65986666D01*
X141745295Y-65986666D02*
X141888152Y-65986666D01*
X141888152Y-65986666D02*
X141983390Y-66034285D01*
X141983390Y-66034285D02*
X142031009Y-66081904D01*
X142031009Y-66081904D02*
X142078628Y-66177142D01*
X142078628Y-66177142D02*
X142078628Y-66558094D01*
X141983390Y-65415237D02*
X141935771Y-65510475D01*
X141935771Y-65510475D02*
X141888152Y-65558094D01*
X141888152Y-65558094D02*
X141792914Y-65605713D01*
X141792914Y-65605713D02*
X141745295Y-65605713D01*
X141745295Y-65605713D02*
X141650057Y-65558094D01*
X141650057Y-65558094D02*
X141602438Y-65510475D01*
X141602438Y-65510475D02*
X141554819Y-65415237D01*
X141554819Y-65415237D02*
X141554819Y-65224761D01*
X141554819Y-65224761D02*
X141602438Y-65129523D01*
X141602438Y-65129523D02*
X141650057Y-65081904D01*
X141650057Y-65081904D02*
X141745295Y-65034285D01*
X141745295Y-65034285D02*
X141792914Y-65034285D01*
X141792914Y-65034285D02*
X141888152Y-65081904D01*
X141888152Y-65081904D02*
X141935771Y-65129523D01*
X141935771Y-65129523D02*
X141983390Y-65224761D01*
X141983390Y-65224761D02*
X141983390Y-65415237D01*
X141983390Y-65415237D02*
X142031009Y-65510475D01*
X142031009Y-65510475D02*
X142078628Y-65558094D01*
X142078628Y-65558094D02*
X142173866Y-65605713D01*
X142173866Y-65605713D02*
X142364342Y-65605713D01*
X142364342Y-65605713D02*
X142459580Y-65558094D01*
X142459580Y-65558094D02*
X142507200Y-65510475D01*
X142507200Y-65510475D02*
X142554819Y-65415237D01*
X142554819Y-65415237D02*
X142554819Y-65224761D01*
X142554819Y-65224761D02*
X142507200Y-65129523D01*
X142507200Y-65129523D02*
X142459580Y-65081904D01*
X142459580Y-65081904D02*
X142364342Y-65034285D01*
X142364342Y-65034285D02*
X142173866Y-65034285D01*
X142173866Y-65034285D02*
X142078628Y-65081904D01*
X142078628Y-65081904D02*
X142031009Y-65129523D01*
X142031009Y-65129523D02*
X141983390Y-65224761D01*
X175654819Y-69261904D02*
X176464342Y-69261904D01*
X176464342Y-69261904D02*
X176559580Y-69214285D01*
X176559580Y-69214285D02*
X176607200Y-69166666D01*
X176607200Y-69166666D02*
X176654819Y-69071428D01*
X176654819Y-69071428D02*
X176654819Y-68880952D01*
X176654819Y-68880952D02*
X176607200Y-68785714D01*
X176607200Y-68785714D02*
X176559580Y-68738095D01*
X176559580Y-68738095D02*
X176464342Y-68690476D01*
X176464342Y-68690476D02*
X175654819Y-68690476D01*
X175988152Y-67785714D02*
X176654819Y-67785714D01*
X175607200Y-68023809D02*
X176321485Y-68261904D01*
X176321485Y-68261904D02*
X176321485Y-67642857D01*
X150454819Y-64842857D02*
X149978628Y-65176190D01*
X150454819Y-65414285D02*
X149454819Y-65414285D01*
X149454819Y-65414285D02*
X149454819Y-65033333D01*
X149454819Y-65033333D02*
X149502438Y-64938095D01*
X149502438Y-64938095D02*
X149550057Y-64890476D01*
X149550057Y-64890476D02*
X149645295Y-64842857D01*
X149645295Y-64842857D02*
X149788152Y-64842857D01*
X149788152Y-64842857D02*
X149883390Y-64890476D01*
X149883390Y-64890476D02*
X149931009Y-64938095D01*
X149931009Y-64938095D02*
X149978628Y-65033333D01*
X149978628Y-65033333D02*
X149978628Y-65414285D01*
X150454819Y-63890476D02*
X150454819Y-64461904D01*
X150454819Y-64176190D02*
X149454819Y-64176190D01*
X149454819Y-64176190D02*
X149597676Y-64271428D01*
X149597676Y-64271428D02*
X149692914Y-64366666D01*
X149692914Y-64366666D02*
X149740533Y-64461904D01*
X150454819Y-62938095D02*
X150454819Y-63509523D01*
X150454819Y-63223809D02*
X149454819Y-63223809D01*
X149454819Y-63223809D02*
X149597676Y-63319047D01*
X149597676Y-63319047D02*
X149692914Y-63414285D01*
X149692914Y-63414285D02*
X149740533Y-63509523D01*
X148133333Y-62517080D02*
X148085714Y-62564700D01*
X148085714Y-62564700D02*
X147942857Y-62612319D01*
X147942857Y-62612319D02*
X147847619Y-62612319D01*
X147847619Y-62612319D02*
X147704762Y-62564700D01*
X147704762Y-62564700D02*
X147609524Y-62469461D01*
X147609524Y-62469461D02*
X147561905Y-62374223D01*
X147561905Y-62374223D02*
X147514286Y-62183747D01*
X147514286Y-62183747D02*
X147514286Y-62040890D01*
X147514286Y-62040890D02*
X147561905Y-61850414D01*
X147561905Y-61850414D02*
X147609524Y-61755176D01*
X147609524Y-61755176D02*
X147704762Y-61659938D01*
X147704762Y-61659938D02*
X147847619Y-61612319D01*
X147847619Y-61612319D02*
X147942857Y-61612319D01*
X147942857Y-61612319D02*
X148085714Y-61659938D01*
X148085714Y-61659938D02*
X148133333Y-61707557D01*
X148466667Y-61612319D02*
X149133333Y-61612319D01*
X149133333Y-61612319D02*
X148704762Y-62612319D01*
X185354819Y-64838094D02*
X184354819Y-64838094D01*
X184354819Y-64838094D02*
X184354819Y-64599999D01*
X184354819Y-64599999D02*
X184402438Y-64457142D01*
X184402438Y-64457142D02*
X184497676Y-64361904D01*
X184497676Y-64361904D02*
X184592914Y-64314285D01*
X184592914Y-64314285D02*
X184783390Y-64266666D01*
X184783390Y-64266666D02*
X184926247Y-64266666D01*
X184926247Y-64266666D02*
X185116723Y-64314285D01*
X185116723Y-64314285D02*
X185211961Y-64361904D01*
X185211961Y-64361904D02*
X185307200Y-64457142D01*
X185307200Y-64457142D02*
X185354819Y-64599999D01*
X185354819Y-64599999D02*
X185354819Y-64838094D01*
X184354819Y-63933332D02*
X184354819Y-63314285D01*
X184354819Y-63314285D02*
X184735771Y-63647618D01*
X184735771Y-63647618D02*
X184735771Y-63504761D01*
X184735771Y-63504761D02*
X184783390Y-63409523D01*
X184783390Y-63409523D02*
X184831009Y-63361904D01*
X184831009Y-63361904D02*
X184926247Y-63314285D01*
X184926247Y-63314285D02*
X185164342Y-63314285D01*
X185164342Y-63314285D02*
X185259580Y-63361904D01*
X185259580Y-63361904D02*
X185307200Y-63409523D01*
X185307200Y-63409523D02*
X185354819Y-63504761D01*
X185354819Y-63504761D02*
X185354819Y-63790475D01*
X185354819Y-63790475D02*
X185307200Y-63885713D01*
X185307200Y-63885713D02*
X185259580Y-63933332D01*
X176328333Y-56854819D02*
X175995000Y-56378628D01*
X175756905Y-56854819D02*
X175756905Y-55854819D01*
X175756905Y-55854819D02*
X176137857Y-55854819D01*
X176137857Y-55854819D02*
X176233095Y-55902438D01*
X176233095Y-55902438D02*
X176280714Y-55950057D01*
X176280714Y-55950057D02*
X176328333Y-56045295D01*
X176328333Y-56045295D02*
X176328333Y-56188152D01*
X176328333Y-56188152D02*
X176280714Y-56283390D01*
X176280714Y-56283390D02*
X176233095Y-56331009D01*
X176233095Y-56331009D02*
X176137857Y-56378628D01*
X176137857Y-56378628D02*
X175756905Y-56378628D01*
X177280714Y-56854819D02*
X176709286Y-56854819D01*
X176995000Y-56854819D02*
X176995000Y-55854819D01*
X176995000Y-55854819D02*
X176899762Y-55997676D01*
X176899762Y-55997676D02*
X176804524Y-56092914D01*
X176804524Y-56092914D02*
X176709286Y-56140533D01*
X145025595Y-63974819D02*
X145025595Y-64784342D01*
X145025595Y-64784342D02*
X145073214Y-64879580D01*
X145073214Y-64879580D02*
X145120833Y-64927200D01*
X145120833Y-64927200D02*
X145216071Y-64974819D01*
X145216071Y-64974819D02*
X145406547Y-64974819D01*
X145406547Y-64974819D02*
X145501785Y-64927200D01*
X145501785Y-64927200D02*
X145549404Y-64879580D01*
X145549404Y-64879580D02*
X145597023Y-64784342D01*
X145597023Y-64784342D02*
X145597023Y-63974819D01*
X146549404Y-63974819D02*
X146073214Y-63974819D01*
X146073214Y-63974819D02*
X146025595Y-64451009D01*
X146025595Y-64451009D02*
X146073214Y-64403390D01*
X146073214Y-64403390D02*
X146168452Y-64355771D01*
X146168452Y-64355771D02*
X146406547Y-64355771D01*
X146406547Y-64355771D02*
X146501785Y-64403390D01*
X146501785Y-64403390D02*
X146549404Y-64451009D01*
X146549404Y-64451009D02*
X146597023Y-64546247D01*
X146597023Y-64546247D02*
X146597023Y-64784342D01*
X146597023Y-64784342D02*
X146549404Y-64879580D01*
X146549404Y-64879580D02*
X146501785Y-64927200D01*
X146501785Y-64927200D02*
X146406547Y-64974819D01*
X146406547Y-64974819D02*
X146168452Y-64974819D01*
X146168452Y-64974819D02*
X146073214Y-64927200D01*
X146073214Y-64927200D02*
X146025595Y-64879580D01*
X149154819Y-68062857D02*
X148678628Y-68396190D01*
X149154819Y-68634285D02*
X148154819Y-68634285D01*
X148154819Y-68634285D02*
X148154819Y-68253333D01*
X148154819Y-68253333D02*
X148202438Y-68158095D01*
X148202438Y-68158095D02*
X148250057Y-68110476D01*
X148250057Y-68110476D02*
X148345295Y-68062857D01*
X148345295Y-68062857D02*
X148488152Y-68062857D01*
X148488152Y-68062857D02*
X148583390Y-68110476D01*
X148583390Y-68110476D02*
X148631009Y-68158095D01*
X148631009Y-68158095D02*
X148678628Y-68253333D01*
X148678628Y-68253333D02*
X148678628Y-68634285D01*
X149154819Y-67110476D02*
X149154819Y-67681904D01*
X149154819Y-67396190D02*
X148154819Y-67396190D01*
X148154819Y-67396190D02*
X148297676Y-67491428D01*
X148297676Y-67491428D02*
X148392914Y-67586666D01*
X148392914Y-67586666D02*
X148440533Y-67681904D01*
X148154819Y-66491428D02*
X148154819Y-66396190D01*
X148154819Y-66396190D02*
X148202438Y-66300952D01*
X148202438Y-66300952D02*
X148250057Y-66253333D01*
X148250057Y-66253333D02*
X148345295Y-66205714D01*
X148345295Y-66205714D02*
X148535771Y-66158095D01*
X148535771Y-66158095D02*
X148773866Y-66158095D01*
X148773866Y-66158095D02*
X148964342Y-66205714D01*
X148964342Y-66205714D02*
X149059580Y-66253333D01*
X149059580Y-66253333D02*
X149107200Y-66300952D01*
X149107200Y-66300952D02*
X149154819Y-66396190D01*
X149154819Y-66396190D02*
X149154819Y-66491428D01*
X149154819Y-66491428D02*
X149107200Y-66586666D01*
X149107200Y-66586666D02*
X149059580Y-66634285D01*
X149059580Y-66634285D02*
X148964342Y-66681904D01*
X148964342Y-66681904D02*
X148773866Y-66729523D01*
X148773866Y-66729523D02*
X148535771Y-66729523D01*
X148535771Y-66729523D02*
X148345295Y-66681904D01*
X148345295Y-66681904D02*
X148250057Y-66634285D01*
X148250057Y-66634285D02*
X148202438Y-66586666D01*
X148202438Y-66586666D02*
X148154819Y-66491428D01*
X173054819Y-66566666D02*
X172578628Y-66899999D01*
X173054819Y-67138094D02*
X172054819Y-67138094D01*
X172054819Y-67138094D02*
X172054819Y-66757142D01*
X172054819Y-66757142D02*
X172102438Y-66661904D01*
X172102438Y-66661904D02*
X172150057Y-66614285D01*
X172150057Y-66614285D02*
X172245295Y-66566666D01*
X172245295Y-66566666D02*
X172388152Y-66566666D01*
X172388152Y-66566666D02*
X172483390Y-66614285D01*
X172483390Y-66614285D02*
X172531009Y-66661904D01*
X172531009Y-66661904D02*
X172578628Y-66757142D01*
X172578628Y-66757142D02*
X172578628Y-67138094D01*
X172150057Y-66185713D02*
X172102438Y-66138094D01*
X172102438Y-66138094D02*
X172054819Y-66042856D01*
X172054819Y-66042856D02*
X172054819Y-65804761D01*
X172054819Y-65804761D02*
X172102438Y-65709523D01*
X172102438Y-65709523D02*
X172150057Y-65661904D01*
X172150057Y-65661904D02*
X172245295Y-65614285D01*
X172245295Y-65614285D02*
X172340533Y-65614285D01*
X172340533Y-65614285D02*
X172483390Y-65661904D01*
X172483390Y-65661904D02*
X173054819Y-66233332D01*
X173054819Y-66233332D02*
X173054819Y-65614285D01*
X165557142Y-77754819D02*
X165223809Y-77278628D01*
X164985714Y-77754819D02*
X164985714Y-76754819D01*
X164985714Y-76754819D02*
X165366666Y-76754819D01*
X165366666Y-76754819D02*
X165461904Y-76802438D01*
X165461904Y-76802438D02*
X165509523Y-76850057D01*
X165509523Y-76850057D02*
X165557142Y-76945295D01*
X165557142Y-76945295D02*
X165557142Y-77088152D01*
X165557142Y-77088152D02*
X165509523Y-77183390D01*
X165509523Y-77183390D02*
X165461904Y-77231009D01*
X165461904Y-77231009D02*
X165366666Y-77278628D01*
X165366666Y-77278628D02*
X164985714Y-77278628D01*
X166509523Y-77754819D02*
X165938095Y-77754819D01*
X166223809Y-77754819D02*
X166223809Y-76754819D01*
X166223809Y-76754819D02*
X166128571Y-76897676D01*
X166128571Y-76897676D02*
X166033333Y-76992914D01*
X166033333Y-76992914D02*
X165938095Y-77040533D01*
X166842857Y-76754819D02*
X167461904Y-76754819D01*
X167461904Y-76754819D02*
X167128571Y-77135771D01*
X167128571Y-77135771D02*
X167271428Y-77135771D01*
X167271428Y-77135771D02*
X167366666Y-77183390D01*
X167366666Y-77183390D02*
X167414285Y-77231009D01*
X167414285Y-77231009D02*
X167461904Y-77326247D01*
X167461904Y-77326247D02*
X167461904Y-77564342D01*
X167461904Y-77564342D02*
X167414285Y-77659580D01*
X167414285Y-77659580D02*
X167366666Y-77707200D01*
X167366666Y-77707200D02*
X167271428Y-77754819D01*
X167271428Y-77754819D02*
X166985714Y-77754819D01*
X166985714Y-77754819D02*
X166890476Y-77707200D01*
X166890476Y-77707200D02*
X166842857Y-77659580D01*
X172766667Y-72962295D02*
X172500000Y-72581342D01*
X172309524Y-72962295D02*
X172309524Y-72162295D01*
X172309524Y-72162295D02*
X172614286Y-72162295D01*
X172614286Y-72162295D02*
X172690476Y-72200390D01*
X172690476Y-72200390D02*
X172728571Y-72238485D01*
X172728571Y-72238485D02*
X172766667Y-72314676D01*
X172766667Y-72314676D02*
X172766667Y-72428961D01*
X172766667Y-72428961D02*
X172728571Y-72505152D01*
X172728571Y-72505152D02*
X172690476Y-72543247D01*
X172690476Y-72543247D02*
X172614286Y-72581342D01*
X172614286Y-72581342D02*
X172309524Y-72581342D01*
X173452381Y-72162295D02*
X173300000Y-72162295D01*
X173300000Y-72162295D02*
X173223809Y-72200390D01*
X173223809Y-72200390D02*
X173185714Y-72238485D01*
X173185714Y-72238485D02*
X173109524Y-72352771D01*
X173109524Y-72352771D02*
X173071428Y-72505152D01*
X173071428Y-72505152D02*
X173071428Y-72809914D01*
X173071428Y-72809914D02*
X173109524Y-72886104D01*
X173109524Y-72886104D02*
X173147619Y-72924200D01*
X173147619Y-72924200D02*
X173223809Y-72962295D01*
X173223809Y-72962295D02*
X173376190Y-72962295D01*
X173376190Y-72962295D02*
X173452381Y-72924200D01*
X173452381Y-72924200D02*
X173490476Y-72886104D01*
X173490476Y-72886104D02*
X173528571Y-72809914D01*
X173528571Y-72809914D02*
X173528571Y-72619438D01*
X173528571Y-72619438D02*
X173490476Y-72543247D01*
X173490476Y-72543247D02*
X173452381Y-72505152D01*
X173452381Y-72505152D02*
X173376190Y-72467057D01*
X173376190Y-72467057D02*
X173223809Y-72467057D01*
X173223809Y-72467057D02*
X173147619Y-72505152D01*
X173147619Y-72505152D02*
X173109524Y-72543247D01*
X173109524Y-72543247D02*
X173071428Y-72619438D01*
X170686104Y-55133332D02*
X170724200Y-55171428D01*
X170724200Y-55171428D02*
X170762295Y-55285713D01*
X170762295Y-55285713D02*
X170762295Y-55361904D01*
X170762295Y-55361904D02*
X170724200Y-55476190D01*
X170724200Y-55476190D02*
X170648009Y-55552380D01*
X170648009Y-55552380D02*
X170571819Y-55590475D01*
X170571819Y-55590475D02*
X170419438Y-55628571D01*
X170419438Y-55628571D02*
X170305152Y-55628571D01*
X170305152Y-55628571D02*
X170152771Y-55590475D01*
X170152771Y-55590475D02*
X170076580Y-55552380D01*
X170076580Y-55552380D02*
X170000390Y-55476190D01*
X170000390Y-55476190D02*
X169962295Y-55361904D01*
X169962295Y-55361904D02*
X169962295Y-55285713D01*
X169962295Y-55285713D02*
X170000390Y-55171428D01*
X170000390Y-55171428D02*
X170038485Y-55133332D01*
X170762295Y-54371428D02*
X170762295Y-54828571D01*
X170762295Y-54599999D02*
X169962295Y-54599999D01*
X169962295Y-54599999D02*
X170076580Y-54676190D01*
X170076580Y-54676190D02*
X170152771Y-54752380D01*
X170152771Y-54752380D02*
X170190866Y-54828571D01*
X182561905Y-63854819D02*
X182561905Y-62854819D01*
X182561905Y-62854819D02*
X182800000Y-62854819D01*
X182800000Y-62854819D02*
X182942857Y-62902438D01*
X182942857Y-62902438D02*
X183038095Y-62997676D01*
X183038095Y-62997676D02*
X183085714Y-63092914D01*
X183085714Y-63092914D02*
X183133333Y-63283390D01*
X183133333Y-63283390D02*
X183133333Y-63426247D01*
X183133333Y-63426247D02*
X183085714Y-63616723D01*
X183085714Y-63616723D02*
X183038095Y-63711961D01*
X183038095Y-63711961D02*
X182942857Y-63807200D01*
X182942857Y-63807200D02*
X182800000Y-63854819D01*
X182800000Y-63854819D02*
X182561905Y-63854819D01*
X183514286Y-62950057D02*
X183561905Y-62902438D01*
X183561905Y-62902438D02*
X183657143Y-62854819D01*
X183657143Y-62854819D02*
X183895238Y-62854819D01*
X183895238Y-62854819D02*
X183990476Y-62902438D01*
X183990476Y-62902438D02*
X184038095Y-62950057D01*
X184038095Y-62950057D02*
X184085714Y-63045295D01*
X184085714Y-63045295D02*
X184085714Y-63140533D01*
X184085714Y-63140533D02*
X184038095Y-63283390D01*
X184038095Y-63283390D02*
X183466667Y-63854819D01*
X183466667Y-63854819D02*
X184085714Y-63854819D01*
X175554819Y-72161904D02*
X176364342Y-72161904D01*
X176364342Y-72161904D02*
X176459580Y-72114285D01*
X176459580Y-72114285D02*
X176507200Y-72066666D01*
X176507200Y-72066666D02*
X176554819Y-71971428D01*
X176554819Y-71971428D02*
X176554819Y-71780952D01*
X176554819Y-71780952D02*
X176507200Y-71685714D01*
X176507200Y-71685714D02*
X176459580Y-71638095D01*
X176459580Y-71638095D02*
X176364342Y-71590476D01*
X176364342Y-71590476D02*
X175554819Y-71590476D01*
X175554819Y-71209523D02*
X175554819Y-70590476D01*
X175554819Y-70590476D02*
X175935771Y-70923809D01*
X175935771Y-70923809D02*
X175935771Y-70780952D01*
X175935771Y-70780952D02*
X175983390Y-70685714D01*
X175983390Y-70685714D02*
X176031009Y-70638095D01*
X176031009Y-70638095D02*
X176126247Y-70590476D01*
X176126247Y-70590476D02*
X176364342Y-70590476D01*
X176364342Y-70590476D02*
X176459580Y-70638095D01*
X176459580Y-70638095D02*
X176507200Y-70685714D01*
X176507200Y-70685714D02*
X176554819Y-70780952D01*
X176554819Y-70780952D02*
X176554819Y-71066666D01*
X176554819Y-71066666D02*
X176507200Y-71161904D01*
X176507200Y-71161904D02*
X176459580Y-71209523D01*
X172923809Y-56338485D02*
X172847619Y-56300390D01*
X172847619Y-56300390D02*
X172771428Y-56224200D01*
X172771428Y-56224200D02*
X172657142Y-56109914D01*
X172657142Y-56109914D02*
X172580952Y-56071819D01*
X172580952Y-56071819D02*
X172504761Y-56071819D01*
X172542857Y-56262295D02*
X172466666Y-56224200D01*
X172466666Y-56224200D02*
X172390476Y-56148009D01*
X172390476Y-56148009D02*
X172352380Y-55995628D01*
X172352380Y-55995628D02*
X172352380Y-55728961D01*
X172352380Y-55728961D02*
X172390476Y-55576580D01*
X172390476Y-55576580D02*
X172466666Y-55500390D01*
X172466666Y-55500390D02*
X172542857Y-55462295D01*
X172542857Y-55462295D02*
X172695238Y-55462295D01*
X172695238Y-55462295D02*
X172771428Y-55500390D01*
X172771428Y-55500390D02*
X172847619Y-55576580D01*
X172847619Y-55576580D02*
X172885714Y-55728961D01*
X172885714Y-55728961D02*
X172885714Y-55995628D01*
X172885714Y-55995628D02*
X172847619Y-56148009D01*
X172847619Y-56148009D02*
X172771428Y-56224200D01*
X172771428Y-56224200D02*
X172695238Y-56262295D01*
X172695238Y-56262295D02*
X172542857Y-56262295D01*
X173647618Y-56262295D02*
X173190475Y-56262295D01*
X173419047Y-56262295D02*
X173419047Y-55462295D01*
X173419047Y-55462295D02*
X173342856Y-55576580D01*
X173342856Y-55576580D02*
X173266666Y-55652771D01*
X173266666Y-55652771D02*
X173190475Y-55690866D01*
X186532142Y-70054819D02*
X186198809Y-69578628D01*
X185960714Y-70054819D02*
X185960714Y-69054819D01*
X185960714Y-69054819D02*
X186341666Y-69054819D01*
X186341666Y-69054819D02*
X186436904Y-69102438D01*
X186436904Y-69102438D02*
X186484523Y-69150057D01*
X186484523Y-69150057D02*
X186532142Y-69245295D01*
X186532142Y-69245295D02*
X186532142Y-69388152D01*
X186532142Y-69388152D02*
X186484523Y-69483390D01*
X186484523Y-69483390D02*
X186436904Y-69531009D01*
X186436904Y-69531009D02*
X186341666Y-69578628D01*
X186341666Y-69578628D02*
X185960714Y-69578628D01*
X187484523Y-70054819D02*
X186913095Y-70054819D01*
X187198809Y-70054819D02*
X187198809Y-69054819D01*
X187198809Y-69054819D02*
X187103571Y-69197676D01*
X187103571Y-69197676D02*
X187008333Y-69292914D01*
X187008333Y-69292914D02*
X186913095Y-69340533D01*
X188055952Y-69483390D02*
X187960714Y-69435771D01*
X187960714Y-69435771D02*
X187913095Y-69388152D01*
X187913095Y-69388152D02*
X187865476Y-69292914D01*
X187865476Y-69292914D02*
X187865476Y-69245295D01*
X187865476Y-69245295D02*
X187913095Y-69150057D01*
X187913095Y-69150057D02*
X187960714Y-69102438D01*
X187960714Y-69102438D02*
X188055952Y-69054819D01*
X188055952Y-69054819D02*
X188246428Y-69054819D01*
X188246428Y-69054819D02*
X188341666Y-69102438D01*
X188341666Y-69102438D02*
X188389285Y-69150057D01*
X188389285Y-69150057D02*
X188436904Y-69245295D01*
X188436904Y-69245295D02*
X188436904Y-69292914D01*
X188436904Y-69292914D02*
X188389285Y-69388152D01*
X188389285Y-69388152D02*
X188341666Y-69435771D01*
X188341666Y-69435771D02*
X188246428Y-69483390D01*
X188246428Y-69483390D02*
X188055952Y-69483390D01*
X188055952Y-69483390D02*
X187960714Y-69531009D01*
X187960714Y-69531009D02*
X187913095Y-69578628D01*
X187913095Y-69578628D02*
X187865476Y-69673866D01*
X187865476Y-69673866D02*
X187865476Y-69864342D01*
X187865476Y-69864342D02*
X187913095Y-69959580D01*
X187913095Y-69959580D02*
X187960714Y-70007200D01*
X187960714Y-70007200D02*
X188055952Y-70054819D01*
X188055952Y-70054819D02*
X188246428Y-70054819D01*
X188246428Y-70054819D02*
X188341666Y-70007200D01*
X188341666Y-70007200D02*
X188389285Y-69959580D01*
X188389285Y-69959580D02*
X188436904Y-69864342D01*
X188436904Y-69864342D02*
X188436904Y-69673866D01*
X188436904Y-69673866D02*
X188389285Y-69578628D01*
X188389285Y-69578628D02*
X188341666Y-69531009D01*
X188341666Y-69531009D02*
X188246428Y-69483390D01*
X140861905Y-58054819D02*
X140861905Y-57054819D01*
X140861905Y-57054819D02*
X141100000Y-57054819D01*
X141100000Y-57054819D02*
X141242857Y-57102438D01*
X141242857Y-57102438D02*
X141338095Y-57197676D01*
X141338095Y-57197676D02*
X141385714Y-57292914D01*
X141385714Y-57292914D02*
X141433333Y-57483390D01*
X141433333Y-57483390D02*
X141433333Y-57626247D01*
X141433333Y-57626247D02*
X141385714Y-57816723D01*
X141385714Y-57816723D02*
X141338095Y-57911961D01*
X141338095Y-57911961D02*
X141242857Y-58007200D01*
X141242857Y-58007200D02*
X141100000Y-58054819D01*
X141100000Y-58054819D02*
X140861905Y-58054819D01*
X142290476Y-57388152D02*
X142290476Y-58054819D01*
X142052381Y-57007200D02*
X141814286Y-57721485D01*
X141814286Y-57721485D02*
X142433333Y-57721485D01*
X170866667Y-61686104D02*
X170828571Y-61724200D01*
X170828571Y-61724200D02*
X170714286Y-61762295D01*
X170714286Y-61762295D02*
X170638095Y-61762295D01*
X170638095Y-61762295D02*
X170523809Y-61724200D01*
X170523809Y-61724200D02*
X170447619Y-61648009D01*
X170447619Y-61648009D02*
X170409524Y-61571819D01*
X170409524Y-61571819D02*
X170371428Y-61419438D01*
X170371428Y-61419438D02*
X170371428Y-61305152D01*
X170371428Y-61305152D02*
X170409524Y-61152771D01*
X170409524Y-61152771D02*
X170447619Y-61076580D01*
X170447619Y-61076580D02*
X170523809Y-61000390D01*
X170523809Y-61000390D02*
X170638095Y-60962295D01*
X170638095Y-60962295D02*
X170714286Y-60962295D01*
X170714286Y-60962295D02*
X170828571Y-61000390D01*
X170828571Y-61000390D02*
X170866667Y-61038485D01*
X171133333Y-60962295D02*
X171628571Y-60962295D01*
X171628571Y-60962295D02*
X171361905Y-61267057D01*
X171361905Y-61267057D02*
X171476190Y-61267057D01*
X171476190Y-61267057D02*
X171552381Y-61305152D01*
X171552381Y-61305152D02*
X171590476Y-61343247D01*
X171590476Y-61343247D02*
X171628571Y-61419438D01*
X171628571Y-61419438D02*
X171628571Y-61609914D01*
X171628571Y-61609914D02*
X171590476Y-61686104D01*
X171590476Y-61686104D02*
X171552381Y-61724200D01*
X171552381Y-61724200D02*
X171476190Y-61762295D01*
X171476190Y-61762295D02*
X171247619Y-61762295D01*
X171247619Y-61762295D02*
X171171428Y-61724200D01*
X171171428Y-61724200D02*
X171133333Y-61686104D01*
X146285714Y-54362295D02*
X146019047Y-53981342D01*
X145828571Y-54362295D02*
X145828571Y-53562295D01*
X145828571Y-53562295D02*
X146133333Y-53562295D01*
X146133333Y-53562295D02*
X146209523Y-53600390D01*
X146209523Y-53600390D02*
X146247618Y-53638485D01*
X146247618Y-53638485D02*
X146285714Y-53714676D01*
X146285714Y-53714676D02*
X146285714Y-53828961D01*
X146285714Y-53828961D02*
X146247618Y-53905152D01*
X146247618Y-53905152D02*
X146209523Y-53943247D01*
X146209523Y-53943247D02*
X146133333Y-53981342D01*
X146133333Y-53981342D02*
X145828571Y-53981342D01*
X147047618Y-54362295D02*
X146590475Y-54362295D01*
X146819047Y-54362295D02*
X146819047Y-53562295D01*
X146819047Y-53562295D02*
X146742856Y-53676580D01*
X146742856Y-53676580D02*
X146666666Y-53752771D01*
X146666666Y-53752771D02*
X146590475Y-53790866D01*
X147771428Y-53562295D02*
X147390476Y-53562295D01*
X147390476Y-53562295D02*
X147352380Y-53943247D01*
X147352380Y-53943247D02*
X147390476Y-53905152D01*
X147390476Y-53905152D02*
X147466666Y-53867057D01*
X147466666Y-53867057D02*
X147657142Y-53867057D01*
X147657142Y-53867057D02*
X147733333Y-53905152D01*
X147733333Y-53905152D02*
X147771428Y-53943247D01*
X147771428Y-53943247D02*
X147809523Y-54019438D01*
X147809523Y-54019438D02*
X147809523Y-54209914D01*
X147809523Y-54209914D02*
X147771428Y-54286104D01*
X147771428Y-54286104D02*
X147733333Y-54324200D01*
X147733333Y-54324200D02*
X147657142Y-54362295D01*
X147657142Y-54362295D02*
X147466666Y-54362295D01*
X147466666Y-54362295D02*
X147390476Y-54324200D01*
X147390476Y-54324200D02*
X147352380Y-54286104D01*
X143854819Y-67186666D02*
X143378628Y-67519999D01*
X143854819Y-67758094D02*
X142854819Y-67758094D01*
X142854819Y-67758094D02*
X142854819Y-67377142D01*
X142854819Y-67377142D02*
X142902438Y-67281904D01*
X142902438Y-67281904D02*
X142950057Y-67234285D01*
X142950057Y-67234285D02*
X143045295Y-67186666D01*
X143045295Y-67186666D02*
X143188152Y-67186666D01*
X143188152Y-67186666D02*
X143283390Y-67234285D01*
X143283390Y-67234285D02*
X143331009Y-67281904D01*
X143331009Y-67281904D02*
X143378628Y-67377142D01*
X143378628Y-67377142D02*
X143378628Y-67758094D01*
X143854819Y-66710475D02*
X143854819Y-66519999D01*
X143854819Y-66519999D02*
X143807200Y-66424761D01*
X143807200Y-66424761D02*
X143759580Y-66377142D01*
X143759580Y-66377142D02*
X143616723Y-66281904D01*
X143616723Y-66281904D02*
X143426247Y-66234285D01*
X143426247Y-66234285D02*
X143045295Y-66234285D01*
X143045295Y-66234285D02*
X142950057Y-66281904D01*
X142950057Y-66281904D02*
X142902438Y-66329523D01*
X142902438Y-66329523D02*
X142854819Y-66424761D01*
X142854819Y-66424761D02*
X142854819Y-66615237D01*
X142854819Y-66615237D02*
X142902438Y-66710475D01*
X142902438Y-66710475D02*
X142950057Y-66758094D01*
X142950057Y-66758094D02*
X143045295Y-66805713D01*
X143045295Y-66805713D02*
X143283390Y-66805713D01*
X143283390Y-66805713D02*
X143378628Y-66758094D01*
X143378628Y-66758094D02*
X143426247Y-66710475D01*
X143426247Y-66710475D02*
X143473866Y-66615237D01*
X143473866Y-66615237D02*
X143473866Y-66424761D01*
X143473866Y-66424761D02*
X143426247Y-66329523D01*
X143426247Y-66329523D02*
X143378628Y-66281904D01*
X143378628Y-66281904D02*
X143283390Y-66234285D01*
X144054819Y-57142857D02*
X143578628Y-57476190D01*
X144054819Y-57714285D02*
X143054819Y-57714285D01*
X143054819Y-57714285D02*
X143054819Y-57333333D01*
X143054819Y-57333333D02*
X143102438Y-57238095D01*
X143102438Y-57238095D02*
X143150057Y-57190476D01*
X143150057Y-57190476D02*
X143245295Y-57142857D01*
X143245295Y-57142857D02*
X143388152Y-57142857D01*
X143388152Y-57142857D02*
X143483390Y-57190476D01*
X143483390Y-57190476D02*
X143531009Y-57238095D01*
X143531009Y-57238095D02*
X143578628Y-57333333D01*
X143578628Y-57333333D02*
X143578628Y-57714285D01*
X144054819Y-56190476D02*
X144054819Y-56761904D01*
X144054819Y-56476190D02*
X143054819Y-56476190D01*
X143054819Y-56476190D02*
X143197676Y-56571428D01*
X143197676Y-56571428D02*
X143292914Y-56666666D01*
X143292914Y-56666666D02*
X143340533Y-56761904D01*
X143388152Y-55333333D02*
X144054819Y-55333333D01*
X143007200Y-55571428D02*
X143721485Y-55809523D01*
X143721485Y-55809523D02*
X143721485Y-55190476D01*
X181459580Y-64266666D02*
X181507200Y-64314285D01*
X181507200Y-64314285D02*
X181554819Y-64457142D01*
X181554819Y-64457142D02*
X181554819Y-64552380D01*
X181554819Y-64552380D02*
X181507200Y-64695237D01*
X181507200Y-64695237D02*
X181411961Y-64790475D01*
X181411961Y-64790475D02*
X181316723Y-64838094D01*
X181316723Y-64838094D02*
X181126247Y-64885713D01*
X181126247Y-64885713D02*
X180983390Y-64885713D01*
X180983390Y-64885713D02*
X180792914Y-64838094D01*
X180792914Y-64838094D02*
X180697676Y-64790475D01*
X180697676Y-64790475D02*
X180602438Y-64695237D01*
X180602438Y-64695237D02*
X180554819Y-64552380D01*
X180554819Y-64552380D02*
X180554819Y-64457142D01*
X180554819Y-64457142D02*
X180602438Y-64314285D01*
X180602438Y-64314285D02*
X180650057Y-64266666D01*
X180554819Y-63361904D02*
X180554819Y-63838094D01*
X180554819Y-63838094D02*
X181031009Y-63885713D01*
X181031009Y-63885713D02*
X180983390Y-63838094D01*
X180983390Y-63838094D02*
X180935771Y-63742856D01*
X180935771Y-63742856D02*
X180935771Y-63504761D01*
X180935771Y-63504761D02*
X180983390Y-63409523D01*
X180983390Y-63409523D02*
X181031009Y-63361904D01*
X181031009Y-63361904D02*
X181126247Y-63314285D01*
X181126247Y-63314285D02*
X181364342Y-63314285D01*
X181364342Y-63314285D02*
X181459580Y-63361904D01*
X181459580Y-63361904D02*
X181507200Y-63409523D01*
X181507200Y-63409523D02*
X181554819Y-63504761D01*
X181554819Y-63504761D02*
X181554819Y-63742856D01*
X181554819Y-63742856D02*
X181507200Y-63838094D01*
X181507200Y-63838094D02*
X181459580Y-63885713D01*
X171149580Y-72266666D02*
X171197200Y-72314285D01*
X171197200Y-72314285D02*
X171244819Y-72457142D01*
X171244819Y-72457142D02*
X171244819Y-72552380D01*
X171244819Y-72552380D02*
X171197200Y-72695237D01*
X171197200Y-72695237D02*
X171101961Y-72790475D01*
X171101961Y-72790475D02*
X171006723Y-72838094D01*
X171006723Y-72838094D02*
X170816247Y-72885713D01*
X170816247Y-72885713D02*
X170673390Y-72885713D01*
X170673390Y-72885713D02*
X170482914Y-72838094D01*
X170482914Y-72838094D02*
X170387676Y-72790475D01*
X170387676Y-72790475D02*
X170292438Y-72695237D01*
X170292438Y-72695237D02*
X170244819Y-72552380D01*
X170244819Y-72552380D02*
X170244819Y-72457142D01*
X170244819Y-72457142D02*
X170292438Y-72314285D01*
X170292438Y-72314285D02*
X170340057Y-72266666D01*
X170578152Y-71409523D02*
X171244819Y-71409523D01*
X170197200Y-71647618D02*
X170911485Y-71885713D01*
X170911485Y-71885713D02*
X170911485Y-71266666D01*
X150057142Y-80754819D02*
X149723809Y-80278628D01*
X149485714Y-80754819D02*
X149485714Y-79754819D01*
X149485714Y-79754819D02*
X149866666Y-79754819D01*
X149866666Y-79754819D02*
X149961904Y-79802438D01*
X149961904Y-79802438D02*
X150009523Y-79850057D01*
X150009523Y-79850057D02*
X150057142Y-79945295D01*
X150057142Y-79945295D02*
X150057142Y-80088152D01*
X150057142Y-80088152D02*
X150009523Y-80183390D01*
X150009523Y-80183390D02*
X149961904Y-80231009D01*
X149961904Y-80231009D02*
X149866666Y-80278628D01*
X149866666Y-80278628D02*
X149485714Y-80278628D01*
X151009523Y-80754819D02*
X150438095Y-80754819D01*
X150723809Y-80754819D02*
X150723809Y-79754819D01*
X150723809Y-79754819D02*
X150628571Y-79897676D01*
X150628571Y-79897676D02*
X150533333Y-79992914D01*
X150533333Y-79992914D02*
X150438095Y-80040533D01*
X151390476Y-79850057D02*
X151438095Y-79802438D01*
X151438095Y-79802438D02*
X151533333Y-79754819D01*
X151533333Y-79754819D02*
X151771428Y-79754819D01*
X151771428Y-79754819D02*
X151866666Y-79802438D01*
X151866666Y-79802438D02*
X151914285Y-79850057D01*
X151914285Y-79850057D02*
X151961904Y-79945295D01*
X151961904Y-79945295D02*
X151961904Y-80040533D01*
X151961904Y-80040533D02*
X151914285Y-80183390D01*
X151914285Y-80183390D02*
X151342857Y-80754819D01*
X151342857Y-80754819D02*
X151961904Y-80754819D01*
X175190476Y-60962295D02*
X175190476Y-61609914D01*
X175190476Y-61609914D02*
X175228571Y-61686104D01*
X175228571Y-61686104D02*
X175266666Y-61724200D01*
X175266666Y-61724200D02*
X175342857Y-61762295D01*
X175342857Y-61762295D02*
X175495238Y-61762295D01*
X175495238Y-61762295D02*
X175571428Y-61724200D01*
X175571428Y-61724200D02*
X175609523Y-61686104D01*
X175609523Y-61686104D02*
X175647619Y-61609914D01*
X175647619Y-61609914D02*
X175647619Y-60962295D01*
X175990475Y-61038485D02*
X176028571Y-61000390D01*
X176028571Y-61000390D02*
X176104761Y-60962295D01*
X176104761Y-60962295D02*
X176295237Y-60962295D01*
X176295237Y-60962295D02*
X176371428Y-61000390D01*
X176371428Y-61000390D02*
X176409523Y-61038485D01*
X176409523Y-61038485D02*
X176447618Y-61114676D01*
X176447618Y-61114676D02*
X176447618Y-61190866D01*
X176447618Y-61190866D02*
X176409523Y-61305152D01*
X176409523Y-61305152D02*
X175952380Y-61762295D01*
X175952380Y-61762295D02*
X176447618Y-61762295D01*
X172766667Y-63662295D02*
X172500000Y-63281342D01*
X172309524Y-63662295D02*
X172309524Y-62862295D01*
X172309524Y-62862295D02*
X172614286Y-62862295D01*
X172614286Y-62862295D02*
X172690476Y-62900390D01*
X172690476Y-62900390D02*
X172728571Y-62938485D01*
X172728571Y-62938485D02*
X172766667Y-63014676D01*
X172766667Y-63014676D02*
X172766667Y-63128961D01*
X172766667Y-63128961D02*
X172728571Y-63205152D01*
X172728571Y-63205152D02*
X172690476Y-63243247D01*
X172690476Y-63243247D02*
X172614286Y-63281342D01*
X172614286Y-63281342D02*
X172309524Y-63281342D01*
X173033333Y-62862295D02*
X173528571Y-62862295D01*
X173528571Y-62862295D02*
X173261905Y-63167057D01*
X173261905Y-63167057D02*
X173376190Y-63167057D01*
X173376190Y-63167057D02*
X173452381Y-63205152D01*
X173452381Y-63205152D02*
X173490476Y-63243247D01*
X173490476Y-63243247D02*
X173528571Y-63319438D01*
X173528571Y-63319438D02*
X173528571Y-63509914D01*
X173528571Y-63509914D02*
X173490476Y-63586104D01*
X173490476Y-63586104D02*
X173452381Y-63624200D01*
X173452381Y-63624200D02*
X173376190Y-63662295D01*
X173376190Y-63662295D02*
X173147619Y-63662295D01*
X173147619Y-63662295D02*
X173071428Y-63624200D01*
X173071428Y-63624200D02*
X173033333Y-63586104D01*
D11*
X159338095Y-70557419D02*
X159338095Y-71366942D01*
X159338095Y-71366942D02*
X159385714Y-71462180D01*
X159385714Y-71462180D02*
X159433333Y-71509800D01*
X159433333Y-71509800D02*
X159528571Y-71557419D01*
X159528571Y-71557419D02*
X159719047Y-71557419D01*
X159719047Y-71557419D02*
X159814285Y-71509800D01*
X159814285Y-71509800D02*
X159861904Y-71462180D01*
X159861904Y-71462180D02*
X159909523Y-71366942D01*
X159909523Y-71366942D02*
X159909523Y-70557419D01*
X160814285Y-70557419D02*
X160623809Y-70557419D01*
X160623809Y-70557419D02*
X160528571Y-70605038D01*
X160528571Y-70605038D02*
X160480952Y-70652657D01*
X160480952Y-70652657D02*
X160385714Y-70795514D01*
X160385714Y-70795514D02*
X160338095Y-70985990D01*
X160338095Y-70985990D02*
X160338095Y-71366942D01*
X160338095Y-71366942D02*
X160385714Y-71462180D01*
X160385714Y-71462180D02*
X160433333Y-71509800D01*
X160433333Y-71509800D02*
X160528571Y-71557419D01*
X160528571Y-71557419D02*
X160719047Y-71557419D01*
X160719047Y-71557419D02*
X160814285Y-71509800D01*
X160814285Y-71509800D02*
X160861904Y-71462180D01*
X160861904Y-71462180D02*
X160909523Y-71366942D01*
X160909523Y-71366942D02*
X160909523Y-71128847D01*
X160909523Y-71128847D02*
X160861904Y-71033609D01*
X160861904Y-71033609D02*
X160814285Y-70985990D01*
X160814285Y-70985990D02*
X160719047Y-70938371D01*
X160719047Y-70938371D02*
X160528571Y-70938371D01*
X160528571Y-70938371D02*
X160433333Y-70985990D01*
X160433333Y-70985990D02*
X160385714Y-71033609D01*
X160385714Y-71033609D02*
X160338095Y-71128847D01*
D10*
X175533333Y-75754819D02*
X175200000Y-75278628D01*
X174961905Y-75754819D02*
X174961905Y-74754819D01*
X174961905Y-74754819D02*
X175342857Y-74754819D01*
X175342857Y-74754819D02*
X175438095Y-74802438D01*
X175438095Y-74802438D02*
X175485714Y-74850057D01*
X175485714Y-74850057D02*
X175533333Y-74945295D01*
X175533333Y-74945295D02*
X175533333Y-75088152D01*
X175533333Y-75088152D02*
X175485714Y-75183390D01*
X175485714Y-75183390D02*
X175438095Y-75231009D01*
X175438095Y-75231009D02*
X175342857Y-75278628D01*
X175342857Y-75278628D02*
X174961905Y-75278628D01*
X176390476Y-75088152D02*
X176390476Y-75754819D01*
X176152381Y-74707200D02*
X175914286Y-75421485D01*
X175914286Y-75421485D02*
X176533333Y-75421485D01*
X170762295Y-67333332D02*
X170381342Y-67599999D01*
X170762295Y-67790475D02*
X169962295Y-67790475D01*
X169962295Y-67790475D02*
X169962295Y-67485713D01*
X169962295Y-67485713D02*
X170000390Y-67409523D01*
X170000390Y-67409523D02*
X170038485Y-67371428D01*
X170038485Y-67371428D02*
X170114676Y-67333332D01*
X170114676Y-67333332D02*
X170228961Y-67333332D01*
X170228961Y-67333332D02*
X170305152Y-67371428D01*
X170305152Y-67371428D02*
X170343247Y-67409523D01*
X170343247Y-67409523D02*
X170381342Y-67485713D01*
X170381342Y-67485713D02*
X170381342Y-67790475D01*
X169962295Y-66609523D02*
X169962295Y-66990475D01*
X169962295Y-66990475D02*
X170343247Y-67028571D01*
X170343247Y-67028571D02*
X170305152Y-66990475D01*
X170305152Y-66990475D02*
X170267057Y-66914285D01*
X170267057Y-66914285D02*
X170267057Y-66723809D01*
X170267057Y-66723809D02*
X170305152Y-66647618D01*
X170305152Y-66647618D02*
X170343247Y-66609523D01*
X170343247Y-66609523D02*
X170419438Y-66571428D01*
X170419438Y-66571428D02*
X170609914Y-66571428D01*
X170609914Y-66571428D02*
X170686104Y-66609523D01*
X170686104Y-66609523D02*
X170724200Y-66647618D01*
X170724200Y-66647618D02*
X170762295Y-66723809D01*
X170762295Y-66723809D02*
X170762295Y-66914285D01*
X170762295Y-66914285D02*
X170724200Y-66990475D01*
X170724200Y-66990475D02*
X170686104Y-67028571D01*
X186532142Y-71554819D02*
X186198809Y-71078628D01*
X185960714Y-71554819D02*
X185960714Y-70554819D01*
X185960714Y-70554819D02*
X186341666Y-70554819D01*
X186341666Y-70554819D02*
X186436904Y-70602438D01*
X186436904Y-70602438D02*
X186484523Y-70650057D01*
X186484523Y-70650057D02*
X186532142Y-70745295D01*
X186532142Y-70745295D02*
X186532142Y-70888152D01*
X186532142Y-70888152D02*
X186484523Y-70983390D01*
X186484523Y-70983390D02*
X186436904Y-71031009D01*
X186436904Y-71031009D02*
X186341666Y-71078628D01*
X186341666Y-71078628D02*
X185960714Y-71078628D01*
X187484523Y-71554819D02*
X186913095Y-71554819D01*
X187198809Y-71554819D02*
X187198809Y-70554819D01*
X187198809Y-70554819D02*
X187103571Y-70697676D01*
X187103571Y-70697676D02*
X187008333Y-70792914D01*
X187008333Y-70792914D02*
X186913095Y-70840533D01*
X187817857Y-70554819D02*
X188484523Y-70554819D01*
X188484523Y-70554819D02*
X188055952Y-71554819D01*
X141233333Y-63559580D02*
X141185714Y-63607200D01*
X141185714Y-63607200D02*
X141042857Y-63654819D01*
X141042857Y-63654819D02*
X140947619Y-63654819D01*
X140947619Y-63654819D02*
X140804762Y-63607200D01*
X140804762Y-63607200D02*
X140709524Y-63511961D01*
X140709524Y-63511961D02*
X140661905Y-63416723D01*
X140661905Y-63416723D02*
X140614286Y-63226247D01*
X140614286Y-63226247D02*
X140614286Y-63083390D01*
X140614286Y-63083390D02*
X140661905Y-62892914D01*
X140661905Y-62892914D02*
X140709524Y-62797676D01*
X140709524Y-62797676D02*
X140804762Y-62702438D01*
X140804762Y-62702438D02*
X140947619Y-62654819D01*
X140947619Y-62654819D02*
X141042857Y-62654819D01*
X141042857Y-62654819D02*
X141185714Y-62702438D01*
X141185714Y-62702438D02*
X141233333Y-62750057D01*
X142090476Y-62654819D02*
X141900000Y-62654819D01*
X141900000Y-62654819D02*
X141804762Y-62702438D01*
X141804762Y-62702438D02*
X141757143Y-62750057D01*
X141757143Y-62750057D02*
X141661905Y-62892914D01*
X141661905Y-62892914D02*
X141614286Y-63083390D01*
X141614286Y-63083390D02*
X141614286Y-63464342D01*
X141614286Y-63464342D02*
X141661905Y-63559580D01*
X141661905Y-63559580D02*
X141709524Y-63607200D01*
X141709524Y-63607200D02*
X141804762Y-63654819D01*
X141804762Y-63654819D02*
X141995238Y-63654819D01*
X141995238Y-63654819D02*
X142090476Y-63607200D01*
X142090476Y-63607200D02*
X142138095Y-63559580D01*
X142138095Y-63559580D02*
X142185714Y-63464342D01*
X142185714Y-63464342D02*
X142185714Y-63226247D01*
X142185714Y-63226247D02*
X142138095Y-63131009D01*
X142138095Y-63131009D02*
X142090476Y-63083390D01*
X142090476Y-63083390D02*
X141995238Y-63035771D01*
X141995238Y-63035771D02*
X141804762Y-63035771D01*
X141804762Y-63035771D02*
X141709524Y-63083390D01*
X141709524Y-63083390D02*
X141661905Y-63131009D01*
X141661905Y-63131009D02*
X141614286Y-63226247D01*
X177128333Y-66604819D02*
X176795000Y-66128628D01*
X176556905Y-66604819D02*
X176556905Y-65604819D01*
X176556905Y-65604819D02*
X176937857Y-65604819D01*
X176937857Y-65604819D02*
X177033095Y-65652438D01*
X177033095Y-65652438D02*
X177080714Y-65700057D01*
X177080714Y-65700057D02*
X177128333Y-65795295D01*
X177128333Y-65795295D02*
X177128333Y-65938152D01*
X177128333Y-65938152D02*
X177080714Y-66033390D01*
X177080714Y-66033390D02*
X177033095Y-66081009D01*
X177033095Y-66081009D02*
X176937857Y-66128628D01*
X176937857Y-66128628D02*
X176556905Y-66128628D01*
X177461667Y-65604819D02*
X178128333Y-65604819D01*
X178128333Y-65604819D02*
X177699762Y-66604819D01*
X173050057Y-77595238D02*
X173002438Y-77690476D01*
X173002438Y-77690476D02*
X172907200Y-77785714D01*
X172907200Y-77785714D02*
X172764342Y-77928571D01*
X172764342Y-77928571D02*
X172716723Y-78023809D01*
X172716723Y-78023809D02*
X172716723Y-78119047D01*
X172954819Y-78071428D02*
X172907200Y-78166666D01*
X172907200Y-78166666D02*
X172811961Y-78261904D01*
X172811961Y-78261904D02*
X172621485Y-78309523D01*
X172621485Y-78309523D02*
X172288152Y-78309523D01*
X172288152Y-78309523D02*
X172097676Y-78261904D01*
X172097676Y-78261904D02*
X172002438Y-78166666D01*
X172002438Y-78166666D02*
X171954819Y-78071428D01*
X171954819Y-78071428D02*
X171954819Y-77880952D01*
X171954819Y-77880952D02*
X172002438Y-77785714D01*
X172002438Y-77785714D02*
X172097676Y-77690476D01*
X172097676Y-77690476D02*
X172288152Y-77642857D01*
X172288152Y-77642857D02*
X172621485Y-77642857D01*
X172621485Y-77642857D02*
X172811961Y-77690476D01*
X172811961Y-77690476D02*
X172907200Y-77785714D01*
X172907200Y-77785714D02*
X172954819Y-77880952D01*
X172954819Y-77880952D02*
X172954819Y-78071428D01*
X172050057Y-77261904D02*
X172002438Y-77214285D01*
X172002438Y-77214285D02*
X171954819Y-77119047D01*
X171954819Y-77119047D02*
X171954819Y-76880952D01*
X171954819Y-76880952D02*
X172002438Y-76785714D01*
X172002438Y-76785714D02*
X172050057Y-76738095D01*
X172050057Y-76738095D02*
X172145295Y-76690476D01*
X172145295Y-76690476D02*
X172240533Y-76690476D01*
X172240533Y-76690476D02*
X172383390Y-76738095D01*
X172383390Y-76738095D02*
X172954819Y-77309523D01*
X172954819Y-77309523D02*
X172954819Y-76690476D01*
X159233333Y-78759580D02*
X159185714Y-78807200D01*
X159185714Y-78807200D02*
X159042857Y-78854819D01*
X159042857Y-78854819D02*
X158947619Y-78854819D01*
X158947619Y-78854819D02*
X158804762Y-78807200D01*
X158804762Y-78807200D02*
X158709524Y-78711961D01*
X158709524Y-78711961D02*
X158661905Y-78616723D01*
X158661905Y-78616723D02*
X158614286Y-78426247D01*
X158614286Y-78426247D02*
X158614286Y-78283390D01*
X158614286Y-78283390D02*
X158661905Y-78092914D01*
X158661905Y-78092914D02*
X158709524Y-77997676D01*
X158709524Y-77997676D02*
X158804762Y-77902438D01*
X158804762Y-77902438D02*
X158947619Y-77854819D01*
X158947619Y-77854819D02*
X159042857Y-77854819D01*
X159042857Y-77854819D02*
X159185714Y-77902438D01*
X159185714Y-77902438D02*
X159233333Y-77950057D01*
X159709524Y-78854819D02*
X159900000Y-78854819D01*
X159900000Y-78854819D02*
X159995238Y-78807200D01*
X159995238Y-78807200D02*
X160042857Y-78759580D01*
X160042857Y-78759580D02*
X160138095Y-78616723D01*
X160138095Y-78616723D02*
X160185714Y-78426247D01*
X160185714Y-78426247D02*
X160185714Y-78045295D01*
X160185714Y-78045295D02*
X160138095Y-77950057D01*
X160138095Y-77950057D02*
X160090476Y-77902438D01*
X160090476Y-77902438D02*
X159995238Y-77854819D01*
X159995238Y-77854819D02*
X159804762Y-77854819D01*
X159804762Y-77854819D02*
X159709524Y-77902438D01*
X159709524Y-77902438D02*
X159661905Y-77950057D01*
X159661905Y-77950057D02*
X159614286Y-78045295D01*
X159614286Y-78045295D02*
X159614286Y-78283390D01*
X159614286Y-78283390D02*
X159661905Y-78378628D01*
X159661905Y-78378628D02*
X159709524Y-78426247D01*
X159709524Y-78426247D02*
X159804762Y-78473866D01*
X159804762Y-78473866D02*
X159995238Y-78473866D01*
X159995238Y-78473866D02*
X160090476Y-78426247D01*
X160090476Y-78426247D02*
X160138095Y-78378628D01*
X160138095Y-78378628D02*
X160185714Y-78283390D01*
D12*
%TO.C,C8*%
X156990000Y-78784420D02*
X156990000Y-79065580D01*
X158010000Y-78784420D02*
X158010000Y-79065580D01*
%TO.C,J22*%
X156250000Y-81000000D02*
G75*
G02*
X154350000Y-81000000I-950000J0D01*
G01*
X154350000Y-81000000D02*
G75*
G02*
X156250000Y-81000000I950000J0D01*
G01*
%TO.C,C2*%
X180259420Y-76090000D02*
X180540580Y-76090000D01*
X180259420Y-77110000D02*
X180540580Y-77110000D01*
%TO.C,R16*%
X147977500Y-55837742D02*
X147977500Y-56312258D01*
X149022500Y-55837742D02*
X149022500Y-56312258D01*
%TO.C,R8*%
X142920000Y-65273641D02*
X142920000Y-64966359D01*
X143680000Y-65273641D02*
X143680000Y-64966359D01*
%TO.C,U4*%
X172215000Y-70142500D02*
X172215000Y-69342500D01*
X172215000Y-70142500D02*
X172215000Y-70942500D01*
X175335000Y-70142500D02*
X175335000Y-69342500D01*
X175335000Y-70142500D02*
X175335000Y-70942500D01*
X172265000Y-71442500D02*
X171935000Y-71682500D01*
X171935000Y-71202500D01*
X172265000Y-71442500D01*
G36*
X172265000Y-71442500D02*
G01*
X171935000Y-71682500D01*
X171935000Y-71202500D01*
X172265000Y-71442500D01*
G37*
%TO.C,R11*%
X147920000Y-64856359D02*
X147920000Y-65163641D01*
X148680000Y-64856359D02*
X148680000Y-65163641D01*
%TO.C,C7*%
X146015580Y-61610000D02*
X145734420Y-61610000D01*
X146015580Y-62630000D02*
X145734420Y-62630000D01*
%TO.C,J23*%
X156250000Y-75800000D02*
G75*
G02*
X154350000Y-75800000I-950000J0D01*
G01*
X154350000Y-75800000D02*
G75*
G02*
X156250000Y-75800000I950000J0D01*
G01*
%TO.C,J19*%
X137450000Y-63800000D02*
G75*
G02*
X135550000Y-63800000I-950000J0D01*
G01*
X135550000Y-63800000D02*
G75*
G02*
X137450000Y-63800000I950000J0D01*
G01*
%TO.C,D3*%
X184440000Y-65662500D02*
X184440000Y-68347500D01*
X184440000Y-68347500D02*
X186360000Y-68347500D01*
X186360000Y-68347500D02*
X186360000Y-65662500D01*
%TO.C,R1*%
X174738641Y-55970000D02*
X174431359Y-55970000D01*
X174738641Y-56730000D02*
X174431359Y-56730000D01*
D11*
%TO.C,U5*%
X144200000Y-63120000D02*
X144920000Y-63120000D01*
X144200000Y-63340000D02*
X144200000Y-63120000D01*
X144200000Y-65820000D02*
X144200000Y-65600000D01*
X144920000Y-65820000D02*
X144200000Y-65820000D01*
X147200000Y-65820000D02*
X146680000Y-65820000D01*
X147400000Y-63120000D02*
X146680000Y-63120000D01*
X147400000Y-63120000D02*
X147400000Y-63340000D01*
X147400000Y-66180000D02*
X147400000Y-65820000D01*
X147760000Y-65820000D01*
X147400000Y-66180000D01*
G36*
X147400000Y-66180000D02*
G01*
X147400000Y-65820000D01*
X147760000Y-65820000D01*
X147400000Y-66180000D01*
G37*
D12*
%TO.C,J4*%
X140050000Y-66400000D02*
G75*
G02*
X138150000Y-66400000I-950000J0D01*
G01*
X138150000Y-66400000D02*
G75*
G02*
X140050000Y-66400000I950000J0D01*
G01*
%TO.C,J21*%
X154350000Y-77450000D02*
X156250000Y-77450000D01*
X154350000Y-79350000D02*
X154350000Y-77450000D01*
X156250000Y-77450000D02*
X156250000Y-79350000D01*
X156250000Y-79350000D02*
X154350000Y-79350000D01*
%TO.C,J7*%
X149700000Y-74700000D02*
X151100000Y-74700000D01*
X149700000Y-76100000D02*
X149700000Y-74700000D01*
X151100000Y-74700000D02*
X151100000Y-76100000D01*
X151100000Y-76100000D02*
X149700000Y-76100000D01*
%TO.C,R10*%
X146956359Y-66340000D02*
X147263641Y-66340000D01*
X146956359Y-67100000D02*
X147263641Y-67100000D01*
%TO.C,R2*%
X174432742Y-66227500D02*
X174907258Y-66227500D01*
X174432742Y-67272500D02*
X174907258Y-67272500D01*
%TO.C,R13*%
X163377500Y-76362742D02*
X163377500Y-76837258D01*
X164422500Y-76362742D02*
X164422500Y-76837258D01*
%TO.C,R6*%
X174636359Y-72320000D02*
X174943641Y-72320000D01*
X174636359Y-73080000D02*
X174943641Y-73080000D01*
%TO.C,J1*%
X183100000Y-80400000D02*
X183100000Y-72300000D01*
X183100000Y-80400000D02*
X186100000Y-80400000D01*
X186100000Y-72300000D02*
X183100000Y-72300000D01*
X186100000Y-72300000D02*
X186100000Y-80400000D01*
%TO.C,J8*%
X151550000Y-77350000D02*
X153450000Y-77350000D01*
X151550000Y-79250000D02*
X151550000Y-77350000D01*
X153450000Y-77350000D02*
X153450000Y-79250000D01*
X153450000Y-79250000D02*
X151550000Y-79250000D01*
%TO.C,J25*%
X160950000Y-80200000D02*
G75*
G02*
X159050000Y-80200000I-950000J0D01*
G01*
X159050000Y-80200000D02*
G75*
G02*
X160950000Y-80200000I950000J0D01*
G01*
%TO.C,C1*%
X172334420Y-54040000D02*
X172615580Y-54040000D01*
X172334420Y-55060000D02*
X172615580Y-55060000D01*
%TO.C,D2*%
X182665000Y-64712500D02*
X182665000Y-66997500D01*
X182665000Y-66997500D02*
X184135000Y-66997500D01*
X184135000Y-66997500D02*
X184135000Y-64712500D01*
%TO.C,J12*%
X171300000Y-52900000D02*
G75*
G02*
X169900000Y-52900000I-700000J0D01*
G01*
X169900000Y-52900000D02*
G75*
G02*
X171300000Y-52900000I700000J0D01*
G01*
%TO.C,U3*%
X176765000Y-72055000D02*
X176765000Y-70105000D01*
X176765000Y-72055000D02*
X176765000Y-74005000D01*
X181885000Y-72055000D02*
X181885000Y-70105000D01*
X181885000Y-72055000D02*
X181885000Y-74005000D01*
X176860000Y-74755000D02*
X176530000Y-74995000D01*
X176530000Y-74515000D01*
X176860000Y-74755000D01*
G36*
X176860000Y-74755000D02*
G01*
X176530000Y-74995000D01*
X176530000Y-74515000D01*
X176860000Y-74755000D01*
G37*
%TO.C,Q1*%
X170190000Y-57362500D02*
X170190000Y-56712500D01*
X170190000Y-57362500D02*
X170190000Y-58012500D01*
X173310000Y-57362500D02*
X173310000Y-56712500D01*
X173310000Y-57362500D02*
X173310000Y-58012500D01*
X170240000Y-58525000D02*
X169910000Y-58765000D01*
X169910000Y-58285000D01*
X170240000Y-58525000D01*
G36*
X170240000Y-58525000D02*
G01*
X169910000Y-58765000D01*
X169910000Y-58285000D01*
X170240000Y-58525000D01*
G37*
%TO.C,R18*%
X184512258Y-68977500D02*
X184037742Y-68977500D01*
X184512258Y-70022500D02*
X184037742Y-70022500D01*
%TO.C,C3*%
X171865580Y-59590000D02*
X171584420Y-59590000D01*
X171865580Y-60610000D02*
X171584420Y-60610000D01*
%TO.C,R15*%
X146227500Y-55837742D02*
X146227500Y-56312258D01*
X147272500Y-55837742D02*
X147272500Y-56312258D01*
%TO.C,R9*%
X145143641Y-66340000D02*
X144836359Y-66340000D01*
X145143641Y-67100000D02*
X144836359Y-67100000D01*
%TO.C,R14*%
X144477500Y-55837742D02*
X144477500Y-56312258D01*
X145522500Y-55837742D02*
X145522500Y-56312258D01*
%TO.C,J3*%
X137450000Y-66400000D02*
G75*
G02*
X135550000Y-66400000I-950000J0D01*
G01*
X135550000Y-66400000D02*
G75*
G02*
X137450000Y-66400000I950000J0D01*
G01*
%TO.C,C5*%
X178985000Y-64234420D02*
X178985000Y-64515580D01*
X180005000Y-64234420D02*
X180005000Y-64515580D01*
%TO.C,C4*%
X170790000Y-69840580D02*
X170790000Y-69559420D01*
X171810000Y-69840580D02*
X171810000Y-69559420D01*
%TO.C,R12*%
X149577500Y-77787742D02*
X149577500Y-78262258D01*
X150622500Y-77787742D02*
X150622500Y-78262258D01*
%TO.C,J9*%
X179600000Y-67000000D02*
G75*
G02*
X178200000Y-67000000I-700000J0D01*
G01*
X178200000Y-67000000D02*
G75*
G02*
X179600000Y-67000000I700000J0D01*
G01*
%TO.C,U2*%
X173535000Y-60625000D02*
X173535000Y-58675000D01*
X173535000Y-60625000D02*
X173535000Y-62575000D01*
X178655000Y-60625000D02*
X178655000Y-58675000D01*
X178655000Y-60625000D02*
X178655000Y-62575000D01*
X178890000Y-58165000D02*
X178560000Y-57925000D01*
X178890000Y-57685000D01*
X178890000Y-58165000D01*
G36*
X178890000Y-58165000D02*
G01*
X178560000Y-57925000D01*
X178890000Y-57685000D01*
X178890000Y-58165000D01*
G37*
%TO.C,R3*%
X174907258Y-64627500D02*
X174432742Y-64627500D01*
X174907258Y-65672500D02*
X174432742Y-65672500D01*
D11*
%TO.C,U6*%
X150200000Y-51730000D02*
X150200000Y-53900000D01*
X150200000Y-51730000D02*
X154900000Y-51730000D01*
X150200000Y-54270000D02*
X150200000Y-53900000D01*
X150200000Y-72050000D02*
X150200000Y-54270000D01*
X165080000Y-51730000D02*
X169780000Y-51730000D01*
X169780000Y-51730000D02*
X169780000Y-72050000D01*
X169780000Y-72050000D02*
X150200000Y-72050000D01*
X154920000Y-50460000D02*
X165080000Y-50460000D01*
X165080000Y-56810000D01*
X154920000Y-56810000D01*
X154920000Y-50460000D01*
D13*
X150400000Y-52400000D02*
G75*
G02*
X150000000Y-52400000I-200000J0D01*
G01*
X150000000Y-52400000D02*
G75*
G02*
X150400000Y-52400000I200000J0D01*
G01*
D12*
%TO.C,R4*%
X178043641Y-76020000D02*
X177736359Y-76020000D01*
X178043641Y-76780000D02*
X177736359Y-76780000D01*
%TO.C,R5*%
X171020000Y-67036359D02*
X171020000Y-67343641D01*
X171780000Y-67036359D02*
X171780000Y-67343641D01*
%TO.C,J18*%
X138150000Y-62850000D02*
X140050000Y-62850000D01*
X138150000Y-64750000D02*
X138150000Y-62850000D01*
X140050000Y-62850000D02*
X140050000Y-64750000D01*
X140050000Y-64750000D02*
X138150000Y-64750000D01*
%TO.C,R17*%
X184537258Y-70577500D02*
X184062742Y-70577500D01*
X184537258Y-71622500D02*
X184062742Y-71622500D01*
%TO.C,C6*%
X142590000Y-62685580D02*
X142590000Y-62404420D01*
X143610000Y-62685580D02*
X143610000Y-62404420D01*
%TO.C,R7*%
X177231359Y-64570000D02*
X177538641Y-64570000D01*
X177231359Y-65330000D02*
X177538641Y-65330000D01*
%TO.C,J24*%
X163750000Y-80200000D02*
G75*
G02*
X161850000Y-80200000I-950000J0D01*
G01*
X161850000Y-80200000D02*
G75*
G02*
X163750000Y-80200000I950000J0D01*
G01*
D14*
%TO.C,Q2*%
X170960000Y-79370000D02*
X170960000Y-74870000D01*
X173990000Y-79370000D02*
X173990000Y-74870000D01*
D15*
X171200000Y-81560000D02*
G75*
G02*
X171000000Y-81560000I-100000J0D01*
G01*
X171000000Y-81560000D02*
G75*
G02*
X171200000Y-81560000I100000J0D01*
G01*
D12*
%TO.C,C9*%
X161790000Y-77234420D02*
X161790000Y-77515580D01*
X162810000Y-77234420D02*
X162810000Y-77515580D01*
%TD*%
%LPC*%
D16*
%TO.C,C8*%
X157500000Y-78150000D03*
X157500000Y-79700000D03*
%TD*%
D17*
%TO.C,J22*%
X155300000Y-81000000D03*
%TD*%
D18*
%TO.C,C2*%
X179625000Y-76600000D03*
X181175000Y-76600000D03*
%TD*%
D19*
%TO.C,R16*%
X148500000Y-55250000D03*
X148500000Y-56900000D03*
%TD*%
D20*
%TO.C,R8*%
X143300000Y-65630000D03*
X143300000Y-64610000D03*
%TD*%
D21*
%TO.C,U4*%
X172825000Y-71280000D03*
X173775000Y-71280000D03*
X174725000Y-71280000D03*
X174725000Y-69005000D03*
X173775000Y-69005000D03*
X172825000Y-69005000D03*
%TD*%
D22*
%TO.C,R11*%
X148300000Y-64500000D03*
X148300000Y-65520000D03*
%TD*%
D23*
%TO.C,C7*%
X146650000Y-62120000D03*
X145100000Y-62120000D03*
%TD*%
D17*
%TO.C,J23*%
X155300000Y-75800000D03*
%TD*%
%TO.C,J19*%
X136500000Y-63800000D03*
%TD*%
D24*
%TO.C,D3*%
X185400000Y-67600000D03*
X185400000Y-65725000D03*
%TD*%
D25*
%TO.C,R1*%
X175095000Y-56350000D03*
X174075000Y-56350000D03*
%TD*%
D26*
%TO.C,U5*%
X147062500Y-65220000D03*
X147062500Y-64720000D03*
X147062500Y-64220000D03*
X147062500Y-63720000D03*
D27*
X146300000Y-63457500D03*
X145800000Y-63457500D03*
X145300000Y-63457500D03*
D26*
X144537500Y-63720000D03*
X144537500Y-64220000D03*
X144537500Y-64720000D03*
X144537500Y-65220000D03*
D27*
X145300000Y-65482500D03*
X145800000Y-65482500D03*
X146300000Y-65482500D03*
%TD*%
D17*
%TO.C,J4*%
X139100000Y-66400000D03*
%TD*%
D28*
%TO.C,J21*%
X155300000Y-78400000D03*
%TD*%
D29*
%TO.C,J7*%
X150400000Y-75400000D03*
%TD*%
D30*
%TO.C,R10*%
X146600000Y-66720000D03*
X147620000Y-66720000D03*
%TD*%
D31*
%TO.C,R2*%
X173845000Y-66750000D03*
X175495000Y-66750000D03*
%TD*%
D19*
%TO.C,R13*%
X163900000Y-75775000D03*
X163900000Y-77425000D03*
%TD*%
D30*
%TO.C,R6*%
X174280000Y-72700000D03*
X175300000Y-72700000D03*
%TD*%
D32*
%TO.C,J1*%
X184600000Y-73800000D03*
D33*
X184600000Y-78880000D03*
%TD*%
D28*
%TO.C,J8*%
X152500000Y-78300000D03*
%TD*%
D17*
%TO.C,J25*%
X160000000Y-80200000D03*
%TD*%
D18*
%TO.C,C1*%
X171700000Y-54550000D03*
X173250000Y-54550000D03*
%TD*%
D34*
%TO.C,D2*%
X183400000Y-66300000D03*
X183400000Y-64725000D03*
%TD*%
D35*
%TO.C,J12*%
X170600000Y-52900000D03*
%TD*%
D36*
%TO.C,U3*%
X177420000Y-74530000D03*
X178690000Y-74530000D03*
X179960000Y-74530000D03*
X181230000Y-74530000D03*
X181230000Y-69580000D03*
X179960000Y-69580000D03*
X178690000Y-69580000D03*
X177420000Y-69580000D03*
D37*
X179325000Y-72055000D03*
%TD*%
D38*
%TO.C,Q1*%
X170800000Y-58300000D03*
X172700000Y-58300000D03*
X171750000Y-56425000D03*
%TD*%
D39*
%TO.C,R18*%
X185100000Y-69500000D03*
X183450000Y-69500000D03*
%TD*%
D40*
%TO.C,D4*%
X148500000Y-59400000D03*
D41*
X146341000Y-59400000D03*
X144182000Y-59400000D03*
X142023000Y-59400000D03*
%TD*%
D23*
%TO.C,C3*%
X172500000Y-60100000D03*
X170950000Y-60100000D03*
%TD*%
D19*
%TO.C,R15*%
X146750000Y-55250000D03*
X146750000Y-56900000D03*
%TD*%
D25*
%TO.C,R9*%
X145500000Y-66720000D03*
X144480000Y-66720000D03*
%TD*%
D19*
%TO.C,R14*%
X145000000Y-55250000D03*
X145000000Y-56900000D03*
%TD*%
D17*
%TO.C,J3*%
X136500000Y-66400000D03*
%TD*%
D16*
%TO.C,C5*%
X179495000Y-63600000D03*
X179495000Y-65150000D03*
%TD*%
D42*
%TO.C,C4*%
X171300000Y-70475000D03*
X171300000Y-68925000D03*
%TD*%
D19*
%TO.C,R12*%
X150100000Y-77200000D03*
X150100000Y-78850000D03*
%TD*%
D35*
%TO.C,J9*%
X178900000Y-67000000D03*
%TD*%
D43*
%TO.C,U2*%
X178000000Y-58150000D03*
X176730000Y-58150000D03*
X175460000Y-58150000D03*
X174190000Y-58150000D03*
X174190000Y-63100000D03*
X175460000Y-63100000D03*
X176730000Y-63100000D03*
X178000000Y-63100000D03*
%TD*%
D39*
%TO.C,R3*%
X175495000Y-65150000D03*
X173845000Y-65150000D03*
%TD*%
D44*
%TO.C,U6*%
X151880000Y-53000000D03*
D17*
X152380000Y-53000000D03*
D44*
X151880000Y-55540000D03*
D17*
X152380000Y-55540000D03*
D44*
X151880000Y-58080000D03*
D17*
X152380000Y-58080000D03*
D44*
X151880000Y-60620000D03*
D17*
X152380000Y-60620000D03*
D44*
X151880000Y-63160000D03*
D17*
X152380000Y-63160000D03*
D44*
X151880000Y-65700000D03*
D17*
X152380000Y-65700000D03*
D44*
X151880000Y-68240000D03*
D17*
X152380000Y-68240000D03*
D44*
X151880000Y-70780000D03*
D17*
X152380000Y-70780000D03*
X167620000Y-70780000D03*
D44*
X168120000Y-70780000D03*
D17*
X167620000Y-68240000D03*
D44*
X168120000Y-68240000D03*
D17*
X167620000Y-65700000D03*
D44*
X168120000Y-65700000D03*
D17*
X167620000Y-63160000D03*
D44*
X168120000Y-63160000D03*
D17*
X167620000Y-60620000D03*
D44*
X168120000Y-60620000D03*
D17*
X167620000Y-58080000D03*
D44*
X168120000Y-58080000D03*
D17*
X167620000Y-55540000D03*
D44*
X168120000Y-55540000D03*
D17*
X167620000Y-53000000D03*
D44*
X168120000Y-53000000D03*
%TD*%
D25*
%TO.C,R4*%
X178400000Y-76400000D03*
X177380000Y-76400000D03*
%TD*%
D22*
%TO.C,R5*%
X171400000Y-66680000D03*
X171400000Y-67700000D03*
%TD*%
D28*
%TO.C,J18*%
X139100000Y-63800000D03*
%TD*%
D39*
%TO.C,R17*%
X185125000Y-71100000D03*
X183475000Y-71100000D03*
%TD*%
D42*
%TO.C,C6*%
X143100000Y-63320000D03*
X143100000Y-61770000D03*
%TD*%
D30*
%TO.C,R7*%
X176875000Y-64950000D03*
X177895000Y-64950000D03*
%TD*%
D17*
%TO.C,J24*%
X162800000Y-80200000D03*
%TD*%
D45*
%TO.C,Q2*%
X171500000Y-80000000D03*
X172150000Y-80000000D03*
X172800000Y-80000000D03*
X173450000Y-80000000D03*
X173450000Y-74240000D03*
X172800000Y-74240000D03*
X172150000Y-74240000D03*
X171500000Y-74240000D03*
%TD*%
D16*
%TO.C,C9*%
X162300000Y-76600000D03*
X162300000Y-78150000D03*
%TD*%
%LPD*%
M02*
