%TF.GenerationSoftware,KiCad,Pcbnew,9.0.4*%
%TF.CreationDate,2025-10-28T17:49:17+05:30*%
%TF.ProjectId,PCB,5043422e-6b69-4636-9164-5f7063625858,rev?*%
%TF.SameCoordinates,Original*%
%TF.FileFunction,Copper,L2,Bot*%
%TF.FilePolarity,Positive*%
%FSLAX46Y46*%
G04 Gerber Fmt 4.6, Leading zero omitted, Abs format (unit mm)*
G04 Created by KiCad (PCBNEW 9.0.4) date 2025-10-28 17:49:17*
%MOMM*%
%LPD*%
G01*
G04 APERTURE LIST*
G04 Aperture macros list*
%AMRoundRect*
0 Rectangle with rounded corners*
0 $1 Rounding radius*
0 $2 $3 $4 $5 $6 $7 $8 $9 X,Y pos of 4 corners*
0 Add a 4 corners polygon primitive as box body*
4,1,4,$2,$3,$4,$5,$6,$7,$8,$9,$2,$3,0*
0 Add four circle primitives for the rounded corners*
1,1,$1+$1,$2,$3*
1,1,$1+$1,$4,$5*
1,1,$1+$1,$6,$7*
1,1,$1+$1,$8,$9*
0 Add four rect primitives between the rounded corners*
20,1,$1+$1,$2,$3,$4,$5,0*
20,1,$1+$1,$4,$5,$6,$7,0*
20,1,$1+$1,$6,$7,$8,$9,0*
20,1,$1+$1,$8,$9,$2,$3,0*%
G04 Aperture macros list end*
%TA.AperFunction,ComponentPad*%
%ADD10RoundRect,0.650000X-0.650000X0.650000X-0.650000X-0.650000X0.650000X-0.650000X0.650000X0.650000X0*%
%TD*%
%TA.AperFunction,ComponentPad*%
%ADD11C,2.600000*%
%TD*%
%TA.AperFunction,ComponentPad*%
%ADD12R,1.800000X1.800000*%
%TD*%
%TA.AperFunction,ComponentPad*%
%ADD13C,1.800000*%
%TD*%
%TA.AperFunction,ComponentPad*%
%ADD14C,1.500000*%
%TD*%
%TA.AperFunction,ViaPad*%
%ADD15C,0.700000*%
%TD*%
%TA.AperFunction,Conductor*%
%ADD16C,0.500000*%
%TD*%
%TA.AperFunction,Conductor*%
%ADD17C,0.800000*%
%TD*%
%TA.AperFunction,Conductor*%
%ADD18C,0.300000*%
%TD*%
G04 APERTURE END LIST*
D10*
%TO.P,J1,1,Pin_1*%
%TO.N,+BATT*%
X184600000Y-73800000D03*
D11*
%TO.P,J1,2,Pin_2*%
%TO.N,-BATT*%
X184600000Y-78880000D03*
%TD*%
D12*
%TO.P,D4,1,BA*%
%TO.N,Net-(D4-BA)*%
X148500000Y-59400000D03*
D13*
%TO.P,D4,2,GA*%
%TO.N,Net-(D4-GA)*%
X146341000Y-59400000D03*
%TO.P,D4,3,K*%
%TO.N,GND*%
X144182000Y-59400000D03*
%TO.P,D4,4,RA*%
%TO.N,Net-(D4-RA)*%
X142023000Y-59400000D03*
%TD*%
D14*
%TO.P,U6,1,GPIO5*%
%TO.N,PWM_R*%
X152380000Y-53000000D03*
%TO.P,U6,2,GPIO6*%
%TO.N,PWM_G*%
X152380000Y-55540000D03*
%TO.P,U6,3,GPIO7*%
%TO.N,PWM_B*%
X152380000Y-58080000D03*
%TO.P,U6,4,GPIO8*%
%TO.N,unconnected-(U6-GPIO8-Pad4)*%
X152380000Y-60620000D03*
%TO.P,U6,5,GPIO9*%
%TO.N,unconnected-(U6-GPIO9-Pad5)_1*%
X152380000Y-63160000D03*
%TO.P,U6,6,GPIO10*%
%TO.N,IMU_SDA*%
X152380000Y-65700000D03*
%TO.P,U6,7,GPIO20*%
%TO.N,IMU_SCL*%
X152380000Y-68240000D03*
%TO.P,U6,8,GPIO21*%
%TO.N,IR_ON*%
X152380000Y-70780000D03*
%TO.P,U6,9,GPIO0*%
%TO.N,IR_ADC*%
X167620000Y-70780000D03*
%TO.P,U6,10,GPIO1*%
%TO.N,Hall_Out*%
X167620000Y-68240000D03*
%TO.P,U6,11,GPIO2*%
%TO.N,unconnected-(U6-GPIO2-Pad11)*%
X167620000Y-65700000D03*
%TO.P,U6,12,GPIO3*%
%TO.N,IMU_INT1*%
X167620000Y-63160000D03*
%TO.P,U6,13,GPIO4*%
%TO.N,Batt_En*%
X167620000Y-60620000D03*
%TO.P,U6,14,3V3*%
%TO.N,+3.3V*%
X167620000Y-58080000D03*
%TO.P,U6,15,GND*%
%TO.N,GND*%
X167620000Y-55540000D03*
%TO.P,U6,16,Vin*%
%TO.N,Vin*%
X167620000Y-53000000D03*
%TD*%
D15*
%TO.N,Vin*%
X171800000Y-59100000D03*
X171800000Y-62600000D03*
X181700000Y-72500000D03*
X176500000Y-69700000D03*
%TO.N,GND*%
X157900000Y-80900000D03*
X135200000Y-64600000D03*
X173300000Y-64200000D03*
X177400000Y-77300000D03*
X176600000Y-76400000D03*
X173500000Y-57100000D03*
X178200000Y-72700000D03*
X174500000Y-54900000D03*
X179300000Y-71300000D03*
X178900000Y-78000000D03*
X180600000Y-65600000D03*
X175295380Y-73585380D03*
X144100000Y-62600000D03*
X179325000Y-72700000D03*
X141900000Y-61800000D03*
X178200000Y-71300000D03*
X180000000Y-77500000D03*
X172300000Y-75600000D03*
X169900000Y-60900000D03*
X149000000Y-63900000D03*
X173100000Y-76100000D03*
X180400000Y-71300000D03*
X161200000Y-81300000D03*
X180400000Y-72700000D03*
%TO.N,+BATT*%
X171200000Y-65700000D03*
X186600000Y-72700000D03*
X182100000Y-65100000D03*
X188100000Y-76600000D03*
X172840380Y-61040380D03*
%TO.N,+3.3V*%
X157800000Y-60900000D03*
X157800000Y-62900000D03*
%TO.N,IMU_SDA*%
X146300000Y-68300000D03*
X144700000Y-68300000D03*
%TO.N,Batt_En*%
X176900000Y-60300000D03*
X174500000Y-60300000D03*
%TD*%
D16*
%TO.N,Vin*%
X181700000Y-70100000D02*
X181700000Y-71900000D01*
X181700000Y-71900000D02*
X181700000Y-72500000D01*
X181300000Y-69700000D02*
X181700000Y-70100000D01*
X176500000Y-69700000D02*
X181300000Y-69700000D01*
X171800000Y-59100000D02*
X171800000Y-62600000D01*
%TO.N,+BATT*%
X171200000Y-65700000D02*
X171200000Y-64600000D01*
X172840380Y-62959620D02*
X172840380Y-61040380D01*
X188100000Y-76600000D02*
X187400000Y-76600000D01*
X186600000Y-69600000D02*
X186600000Y-70000000D01*
X171200000Y-64600000D02*
X172840380Y-62959620D01*
X183300000Y-66300000D02*
X186600000Y-69600000D01*
X187400000Y-76600000D02*
X184600000Y-73800000D01*
X186600000Y-70000000D02*
X186600000Y-72700000D01*
X183300000Y-66300000D02*
X182100000Y-65100000D01*
D17*
%TO.N,+3.3V*%
X157800000Y-62900000D02*
X157800000Y-60900000D01*
D18*
%TO.N,IMU_SDA*%
X146300000Y-68300000D02*
X144700000Y-68300000D01*
%TO.N,Batt_En*%
X176859620Y-60259620D02*
X176900000Y-60300000D01*
X174540380Y-60259620D02*
X176859620Y-60259620D01*
X174500000Y-60300000D02*
X174540380Y-60259620D01*
%TD*%
%TA.AperFunction,Conductor*%
%TO.N,GND*%
G36*
X151754231Y-51946045D02*
G01*
X151799986Y-51998849D01*
X151809930Y-52068007D01*
X151780905Y-52131563D01*
X151756082Y-52153463D01*
X151710342Y-52184024D01*
X151564024Y-52330342D01*
X151449058Y-52502403D01*
X151369870Y-52693579D01*
X151369868Y-52693587D01*
X151329500Y-52896530D01*
X151329500Y-53103469D01*
X151369868Y-53306412D01*
X151369870Y-53306420D01*
X151449059Y-53497598D01*
X151457679Y-53510499D01*
X151564024Y-53669657D01*
X151710342Y-53815975D01*
X151710345Y-53815977D01*
X151882402Y-53930941D01*
X152073580Y-54010130D01*
X152268064Y-54048815D01*
X152276530Y-54050499D01*
X152276534Y-54050500D01*
X152276535Y-54050500D01*
X152483466Y-54050500D01*
X152483467Y-54050499D01*
X152686420Y-54010130D01*
X152877598Y-53930941D01*
X153049655Y-53815977D01*
X153195977Y-53669655D01*
X153310941Y-53497598D01*
X153390130Y-53306420D01*
X153430500Y-53103465D01*
X153430500Y-52896535D01*
X153390130Y-52693580D01*
X153310941Y-52502402D01*
X153195977Y-52330345D01*
X153195975Y-52330342D01*
X153049657Y-52184024D01*
X153003918Y-52153463D01*
X152959112Y-52099851D01*
X152950405Y-52030526D01*
X152980559Y-51967498D01*
X153040002Y-51930778D01*
X153072808Y-51926360D01*
X166927192Y-51926360D01*
X166994231Y-51946045D01*
X167039986Y-51998849D01*
X167049930Y-52068007D01*
X167020905Y-52131563D01*
X166996082Y-52153463D01*
X166950342Y-52184024D01*
X166804024Y-52330342D01*
X166689058Y-52502403D01*
X166609870Y-52693579D01*
X166609868Y-52693587D01*
X166569500Y-52896530D01*
X166569500Y-53103469D01*
X166609868Y-53306412D01*
X166609870Y-53306420D01*
X166689059Y-53497598D01*
X166697679Y-53510499D01*
X166804024Y-53669657D01*
X166950342Y-53815975D01*
X166950345Y-53815977D01*
X167122402Y-53930941D01*
X167313580Y-54010130D01*
X167508064Y-54048815D01*
X167569975Y-54081199D01*
X167604549Y-54141915D01*
X167600810Y-54211684D01*
X167559944Y-54268357D01*
X167503272Y-54292905D01*
X167327293Y-54320778D01*
X167140164Y-54381581D01*
X166964856Y-54470904D01*
X166805678Y-54586555D01*
X166666555Y-54725678D01*
X166550904Y-54884856D01*
X166461581Y-55060162D01*
X166400781Y-55247283D01*
X166394016Y-55290000D01*
X167186988Y-55290000D01*
X167154075Y-55347007D01*
X167120000Y-55474174D01*
X167120000Y-55605826D01*
X167154075Y-55732993D01*
X167186988Y-55790000D01*
X166394016Y-55790000D01*
X166400781Y-55832716D01*
X166461581Y-56019837D01*
X166550904Y-56195143D01*
X166666555Y-56354321D01*
X166805678Y-56493444D01*
X166964856Y-56609095D01*
X167140164Y-56698418D01*
X167327294Y-56759221D01*
X167503271Y-56787094D01*
X167566406Y-56817023D01*
X167603337Y-56876335D01*
X167602339Y-56946197D01*
X167563729Y-57004430D01*
X167508064Y-57031184D01*
X167313587Y-57069868D01*
X167313579Y-57069870D01*
X167122403Y-57149058D01*
X166950342Y-57264024D01*
X166804024Y-57410342D01*
X166689058Y-57582403D01*
X166609870Y-57773579D01*
X166609868Y-57773587D01*
X166569500Y-57976530D01*
X166569500Y-58183469D01*
X166609868Y-58386412D01*
X166609870Y-58386420D01*
X166685878Y-58569920D01*
X166689059Y-58577598D01*
X166716006Y-58617927D01*
X166804024Y-58749657D01*
X166950342Y-58895975D01*
X166950345Y-58895977D01*
X167122402Y-59010941D01*
X167313580Y-59090130D01*
X167482319Y-59123694D01*
X167516530Y-59130499D01*
X167516534Y-59130500D01*
X167516535Y-59130500D01*
X167723466Y-59130500D01*
X167723467Y-59130499D01*
X167926420Y-59090130D01*
X168117598Y-59010941D01*
X168289655Y-58895977D01*
X168435977Y-58749655D01*
X168550941Y-58577598D01*
X168630130Y-58386420D01*
X168670500Y-58183465D01*
X168670500Y-57976535D01*
X168630130Y-57773580D01*
X168550941Y-57582402D01*
X168435977Y-57410345D01*
X168435975Y-57410342D01*
X168289657Y-57264024D01*
X168147901Y-57169307D01*
X168117598Y-57149059D01*
X168104817Y-57143765D01*
X167926420Y-57069870D01*
X167926412Y-57069868D01*
X167731935Y-57031184D01*
X167670024Y-56998799D01*
X167635450Y-56938084D01*
X167639189Y-56868314D01*
X167680056Y-56811642D01*
X167736728Y-56787094D01*
X167912705Y-56759221D01*
X168099835Y-56698418D01*
X168275143Y-56609095D01*
X168434321Y-56493444D01*
X168573444Y-56354321D01*
X168689095Y-56195143D01*
X168778418Y-56019837D01*
X168839218Y-55832716D01*
X168845984Y-55790000D01*
X168053012Y-55790000D01*
X168085925Y-55732993D01*
X168120000Y-55605826D01*
X168120000Y-55474174D01*
X168085925Y-55347007D01*
X168053012Y-55290000D01*
X168845984Y-55290000D01*
X168839218Y-55247283D01*
X168778418Y-55060162D01*
X168689095Y-54884856D01*
X168573444Y-54725678D01*
X168434321Y-54586555D01*
X168275143Y-54470904D01*
X168099835Y-54381581D01*
X167912705Y-54320778D01*
X167912707Y-54320778D01*
X167736727Y-54292905D01*
X167673593Y-54262975D01*
X167636662Y-54203664D01*
X167637660Y-54133801D01*
X167676270Y-54075569D01*
X167731934Y-54048815D01*
X167926420Y-54010130D01*
X168117598Y-53930941D01*
X168289655Y-53815977D01*
X168435977Y-53669655D01*
X168550941Y-53497598D01*
X168630130Y-53306420D01*
X168670500Y-53103465D01*
X168670500Y-52896535D01*
X168630130Y-52693580D01*
X168550941Y-52502402D01*
X168435977Y-52330345D01*
X168435975Y-52330342D01*
X168289657Y-52184024D01*
X168243918Y-52153463D01*
X168199112Y-52099851D01*
X168190405Y-52030526D01*
X168220559Y-51967498D01*
X168280002Y-51930778D01*
X168312808Y-51926360D01*
X170168402Y-51926360D01*
X170210454Y-51933708D01*
X170479029Y-52030526D01*
X171132078Y-52265942D01*
X171135882Y-52267385D01*
X172093801Y-52648832D01*
X172097527Y-52650386D01*
X172707990Y-52917112D01*
X173042433Y-53063238D01*
X173046146Y-53064934D01*
X173976856Y-53508673D01*
X173980475Y-53510472D01*
X174896089Y-53984669D01*
X174899651Y-53986589D01*
X175286970Y-54203664D01*
X175799118Y-54490700D01*
X175802651Y-54492757D01*
X175957789Y-54586555D01*
X176685039Y-55026259D01*
X176688452Y-55028401D01*
X177373659Y-55474174D01*
X177552743Y-55590680D01*
X177556132Y-55592965D01*
X178167227Y-56019837D01*
X178401402Y-56183416D01*
X178404705Y-56185805D01*
X179230107Y-56803838D01*
X179233301Y-56806314D01*
X179804337Y-57264024D01*
X180031633Y-57446212D01*
X180046031Y-57459774D01*
X180084887Y-57502721D01*
X180104669Y-57532140D01*
X180126262Y-57577010D01*
X180136910Y-57610821D01*
X180144925Y-57659965D01*
X180145571Y-57695411D01*
X180139352Y-57744817D01*
X180139323Y-57744920D01*
X180139332Y-57744974D01*
X180129943Y-57778996D01*
X180110000Y-57824620D01*
X180091301Y-57854742D01*
X180053859Y-57899286D01*
X180041482Y-57912033D01*
X179930531Y-58011005D01*
X179930526Y-58011010D01*
X179723131Y-58246665D01*
X179545586Y-58505556D01*
X179400465Y-58783923D01*
X179400465Y-58783924D01*
X179289889Y-59077699D01*
X179289883Y-59077719D01*
X179215438Y-59382684D01*
X179178215Y-59694380D01*
X179178751Y-60008305D01*
X179217039Y-60319872D01*
X179217040Y-60319876D01*
X179259120Y-60489738D01*
X179292526Y-60624584D01*
X179404113Y-60918001D01*
X179550181Y-61195867D01*
X179550183Y-61195870D01*
X179573843Y-61230118D01*
X179728610Y-61454147D01*
X179936808Y-61689092D01*
X180171752Y-61897290D01*
X180430032Y-62075718D01*
X180707898Y-62221786D01*
X181001315Y-62333373D01*
X181306024Y-62408859D01*
X181617599Y-62447149D01*
X181931518Y-62447685D01*
X182242812Y-62410509D01*
X182243214Y-62410461D01*
X182243214Y-62410460D01*
X182243222Y-62410460D01*
X182548187Y-62336015D01*
X182841983Y-62225431D01*
X183068190Y-62107502D01*
X183120339Y-62080317D01*
X183120340Y-62080316D01*
X183120339Y-62080316D01*
X183120346Y-62080313D01*
X183379235Y-61902768D01*
X183614889Y-61695374D01*
X183692840Y-61607987D01*
X183692844Y-61607986D01*
X183713467Y-61584864D01*
X183726195Y-61572506D01*
X183771228Y-61534653D01*
X183801335Y-61515963D01*
X183846973Y-61496011D01*
X183881140Y-61486602D01*
X183930558Y-61480377D01*
X183930660Y-61480378D01*
X183930709Y-61480358D01*
X183965997Y-61481019D01*
X183972967Y-61482154D01*
X184015154Y-61489029D01*
X184048957Y-61499668D01*
X184093845Y-61521261D01*
X184123261Y-61541033D01*
X184151430Y-61566508D01*
X184165784Y-61579489D01*
X184179428Y-61593982D01*
X184850256Y-62432270D01*
X184852876Y-62435662D01*
X185498796Y-63302629D01*
X185501297Y-63306111D01*
X186116867Y-64194887D01*
X186119246Y-64198452D01*
X186500595Y-64791873D01*
X186657431Y-65035928D01*
X186703704Y-65107933D01*
X186705952Y-65111567D01*
X186873700Y-65393579D01*
X187258669Y-66040775D01*
X187260796Y-66044497D01*
X187388135Y-66276465D01*
X187648355Y-66750500D01*
X187781035Y-66992197D01*
X187783032Y-66995989D01*
X188270205Y-67961103D01*
X188272071Y-67964963D01*
X188725613Y-68946376D01*
X188727343Y-68950297D01*
X189146680Y-69946769D01*
X189148274Y-69950748D01*
X189532920Y-70961115D01*
X189534376Y-70965147D01*
X189883881Y-71988237D01*
X189885196Y-71992317D01*
X190199115Y-73026826D01*
X190200289Y-73030948D01*
X190356690Y-73618757D01*
X190473039Y-74056042D01*
X190478282Y-74075745D01*
X190479312Y-74079906D01*
X190721017Y-75133646D01*
X190721903Y-75137840D01*
X190927044Y-76199304D01*
X190927785Y-76203526D01*
X191096120Y-77271477D01*
X191096714Y-77275722D01*
X191209499Y-78197366D01*
X191198103Y-78266300D01*
X191174098Y-78300109D01*
X186153323Y-83320886D01*
X186092000Y-83354371D01*
X186065642Y-83357205D01*
X170134466Y-83357205D01*
X170067427Y-83337520D01*
X170046785Y-83320886D01*
X169113628Y-82387729D01*
X169039937Y-82357205D01*
X169039936Y-82357205D01*
X168960172Y-82357205D01*
X168948362Y-82357205D01*
X168948320Y-82357209D01*
X150134466Y-82357209D01*
X150067427Y-82337524D01*
X150046785Y-82320890D01*
X148236873Y-80510978D01*
X148203388Y-80449655D01*
X148200554Y-80423297D01*
X148200554Y-78754038D01*
X182999500Y-78754038D01*
X182999500Y-79005961D01*
X183038910Y-79254785D01*
X183116760Y-79494383D01*
X183231132Y-79718848D01*
X183379201Y-79922649D01*
X183379205Y-79922654D01*
X183557345Y-80100794D01*
X183557350Y-80100798D01*
X183735117Y-80229952D01*
X183761155Y-80248870D01*
X183904184Y-80321747D01*
X183985616Y-80363239D01*
X183985618Y-80363239D01*
X183985621Y-80363241D01*
X184225215Y-80441090D01*
X184474038Y-80480500D01*
X184474039Y-80480500D01*
X184725961Y-80480500D01*
X184725962Y-80480500D01*
X184974785Y-80441090D01*
X185214379Y-80363241D01*
X185438845Y-80248870D01*
X185642656Y-80100793D01*
X185820793Y-79922656D01*
X185968870Y-79718845D01*
X186083241Y-79494379D01*
X186161090Y-79254785D01*
X186200500Y-79005962D01*
X186200500Y-78754038D01*
X186161090Y-78505215D01*
X186083241Y-78265621D01*
X186083239Y-78265618D01*
X186083239Y-78265616D01*
X186041747Y-78184184D01*
X185968870Y-78041155D01*
X185949952Y-78015117D01*
X185820798Y-77837350D01*
X185820794Y-77837345D01*
X185642654Y-77659205D01*
X185642649Y-77659201D01*
X185438848Y-77511132D01*
X185438847Y-77511131D01*
X185438845Y-77511130D01*
X185368747Y-77475413D01*
X185214383Y-77396760D01*
X184974785Y-77318910D01*
X184725962Y-77279500D01*
X184474038Y-77279500D01*
X184349626Y-77299205D01*
X184225214Y-77318910D01*
X183985616Y-77396760D01*
X183761151Y-77511132D01*
X183557350Y-77659201D01*
X183557345Y-77659205D01*
X183379205Y-77837345D01*
X183379201Y-77837350D01*
X183231132Y-78041151D01*
X183116760Y-78265616D01*
X183038910Y-78505214D01*
X182999500Y-78754038D01*
X148200554Y-78754038D01*
X148200554Y-74788549D01*
X158299554Y-74788549D01*
X158299554Y-75011450D01*
X158299555Y-75011466D01*
X158328648Y-75232452D01*
X158328649Y-75232457D01*
X158328650Y-75232463D01*
X158382095Y-75431922D01*
X158386344Y-75447780D01*
X158386347Y-75447790D01*
X158440691Y-75578987D01*
X158471649Y-75653726D01*
X158583106Y-75846774D01*
X158583111Y-75846780D01*
X158583112Y-75846782D01*
X158718805Y-76023622D01*
X158718811Y-76023629D01*
X158876424Y-76181242D01*
X158876431Y-76181248D01*
X159002348Y-76277867D01*
X159053280Y-76316948D01*
X159246328Y-76428405D01*
X159452273Y-76513710D01*
X159667591Y-76571404D01*
X159888597Y-76600500D01*
X159888604Y-76600500D01*
X160111504Y-76600500D01*
X160111511Y-76600500D01*
X160332517Y-76571404D01*
X160547835Y-76513710D01*
X160753780Y-76428405D01*
X160946828Y-76316948D01*
X161123678Y-76181247D01*
X161281301Y-76023624D01*
X161417002Y-75846774D01*
X161528459Y-75653726D01*
X161613764Y-75447781D01*
X161671458Y-75232463D01*
X161700554Y-75011457D01*
X161700554Y-74788543D01*
X161671458Y-74567537D01*
X161613764Y-74352219D01*
X161528459Y-74146274D01*
X161417002Y-73953226D01*
X161281301Y-73776376D01*
X161281296Y-73776370D01*
X161123683Y-73618757D01*
X161123676Y-73618751D01*
X160946836Y-73483058D01*
X160946834Y-73483057D01*
X160946828Y-73483052D01*
X160753780Y-73371595D01*
X160753776Y-73371593D01*
X160547844Y-73286293D01*
X160547837Y-73286291D01*
X160547835Y-73286290D01*
X160332517Y-73228596D01*
X160332511Y-73228595D01*
X160332506Y-73228594D01*
X160111520Y-73199501D01*
X160111517Y-73199500D01*
X160111511Y-73199500D01*
X159888597Y-73199500D01*
X159888591Y-73199500D01*
X159888587Y-73199501D01*
X159667601Y-73228594D01*
X159667594Y-73228595D01*
X159667591Y-73228596D01*
X159488956Y-73276461D01*
X159452273Y-73286290D01*
X159452263Y-73286293D01*
X159246331Y-73371593D01*
X159246327Y-73371595D01*
X159053280Y-73483052D01*
X159053271Y-73483058D01*
X158876431Y-73618751D01*
X158876424Y-73618757D01*
X158718811Y-73776370D01*
X158718805Y-73776377D01*
X158583112Y-73953217D01*
X158583106Y-73953226D01*
X158471649Y-74146273D01*
X158471647Y-74146277D01*
X158386347Y-74352209D01*
X158386344Y-74352219D01*
X158328651Y-74567534D01*
X158328648Y-74567547D01*
X158299555Y-74788533D01*
X158299554Y-74788549D01*
X148200554Y-74788549D01*
X148200554Y-70985979D01*
X148200553Y-70985976D01*
X148170030Y-70912286D01*
X148113628Y-70855884D01*
X147934274Y-70676530D01*
X151329500Y-70676530D01*
X151329500Y-70883469D01*
X151369868Y-71086412D01*
X151369870Y-71086420D01*
X151449058Y-71277596D01*
X151564024Y-71449657D01*
X151710342Y-71595975D01*
X151710345Y-71595977D01*
X151882402Y-71710941D01*
X152073580Y-71790130D01*
X152261579Y-71827525D01*
X152276530Y-71830499D01*
X152276534Y-71830500D01*
X152276535Y-71830500D01*
X152483466Y-71830500D01*
X152483467Y-71830499D01*
X152686420Y-71790130D01*
X152877598Y-71710941D01*
X153049655Y-71595977D01*
X153195977Y-71449655D01*
X153310941Y-71277598D01*
X153390130Y-71086420D01*
X153430500Y-70883465D01*
X153430500Y-70676535D01*
X153430499Y-70676530D01*
X166569500Y-70676530D01*
X166569500Y-70883469D01*
X166609868Y-71086412D01*
X166609870Y-71086420D01*
X166689058Y-71277596D01*
X166804024Y-71449657D01*
X166950342Y-71595975D01*
X166950345Y-71595977D01*
X167122402Y-71710941D01*
X167313580Y-71790130D01*
X167501579Y-71827525D01*
X167516530Y-71830499D01*
X167516534Y-71830500D01*
X167516535Y-71830500D01*
X167723466Y-71830500D01*
X167723467Y-71830499D01*
X167926420Y-71790130D01*
X168117598Y-71710941D01*
X168289655Y-71595977D01*
X168435977Y-71449655D01*
X168550941Y-71277598D01*
X168630130Y-71086420D01*
X168670500Y-70883465D01*
X168670500Y-70676535D01*
X168630130Y-70473580D01*
X168550941Y-70282402D01*
X168435977Y-70110345D01*
X168435975Y-70110342D01*
X168289657Y-69964024D01*
X168127809Y-69855882D01*
X168117598Y-69849059D01*
X168012860Y-69805675D01*
X167926420Y-69769870D01*
X167926412Y-69769868D01*
X167897268Y-69764071D01*
X175849499Y-69764071D01*
X175874497Y-69889738D01*
X175874499Y-69889744D01*
X175923533Y-70008124D01*
X175923538Y-70008133D01*
X175994723Y-70114668D01*
X175994726Y-70114672D01*
X176085327Y-70205273D01*
X176085331Y-70205276D01*
X176191866Y-70276461D01*
X176191875Y-70276466D01*
X176216870Y-70286819D01*
X176310256Y-70325501D01*
X176310260Y-70325501D01*
X176310261Y-70325502D01*
X176435928Y-70350500D01*
X176435931Y-70350500D01*
X176564071Y-70350500D01*
X176677055Y-70328025D01*
X176689744Y-70325501D01*
X176808127Y-70276465D01*
X176815712Y-70271396D01*
X176882389Y-70250520D01*
X176884601Y-70250500D01*
X181020613Y-70250500D01*
X181050053Y-70259144D01*
X181080040Y-70265668D01*
X181085055Y-70269422D01*
X181087652Y-70270185D01*
X181108294Y-70286819D01*
X181113181Y-70291706D01*
X181146666Y-70353029D01*
X181149500Y-70379387D01*
X181149500Y-72115398D01*
X181129815Y-72182437D01*
X181128604Y-72184286D01*
X181123534Y-72191872D01*
X181074499Y-72310255D01*
X181074497Y-72310261D01*
X181049500Y-72435928D01*
X181049500Y-72435931D01*
X181049500Y-72564069D01*
X181049500Y-72564071D01*
X181049499Y-72564071D01*
X181074497Y-72689738D01*
X181074499Y-72689744D01*
X181123533Y-72808124D01*
X181123538Y-72808133D01*
X181194723Y-72914668D01*
X181194726Y-72914672D01*
X181285327Y-73005273D01*
X181285331Y-73005276D01*
X181391866Y-73076461D01*
X181391872Y-73076464D01*
X181391873Y-73076465D01*
X181510256Y-73125501D01*
X181510260Y-73125501D01*
X181510261Y-73125502D01*
X181635928Y-73150500D01*
X181635931Y-73150500D01*
X181764071Y-73150500D01*
X181848615Y-73133682D01*
X181889744Y-73125501D01*
X182008127Y-73076465D01*
X182114669Y-73005276D01*
X182205276Y-72914669D01*
X182276465Y-72808127D01*
X182325501Y-72689744D01*
X182350500Y-72564069D01*
X182350500Y-72435931D01*
X182350500Y-72435928D01*
X182325502Y-72310261D01*
X182325501Y-72310260D01*
X182325501Y-72310256D01*
X182283801Y-72209583D01*
X182276465Y-72191872D01*
X182271396Y-72184286D01*
X182250520Y-72117608D01*
X182250500Y-72115398D01*
X182250500Y-70027527D01*
X182250500Y-70027525D01*
X182212984Y-69887515D01*
X182194722Y-69855884D01*
X182153559Y-69784588D01*
X182140512Y-69761988D01*
X182140508Y-69761983D01*
X181638016Y-69259491D01*
X181638015Y-69259490D01*
X181512485Y-69187016D01*
X181512486Y-69187016D01*
X181409761Y-69159491D01*
X181409761Y-69159490D01*
X181372475Y-69149500D01*
X176884601Y-69149500D01*
X176817562Y-69129815D01*
X176815747Y-69128626D01*
X176808127Y-69123535D01*
X176808124Y-69123533D01*
X176808123Y-69123533D01*
X176689744Y-69074499D01*
X176689738Y-69074497D01*
X176564071Y-69049500D01*
X176564069Y-69049500D01*
X176435931Y-69049500D01*
X176435929Y-69049500D01*
X176310261Y-69074497D01*
X176310255Y-69074499D01*
X176191875Y-69123533D01*
X176191866Y-69123538D01*
X176085331Y-69194723D01*
X176085327Y-69194726D01*
X175994726Y-69285327D01*
X175994723Y-69285331D01*
X175923538Y-69391866D01*
X175923533Y-69391875D01*
X175874499Y-69510255D01*
X175874497Y-69510261D01*
X175849500Y-69635928D01*
X175849500Y-69635931D01*
X175849500Y-69764069D01*
X175849500Y-69764071D01*
X175849499Y-69764071D01*
X167897268Y-69764071D01*
X167833848Y-69751456D01*
X167723469Y-69729500D01*
X167723465Y-69729500D01*
X167516535Y-69729500D01*
X167516530Y-69729500D01*
X167313587Y-69769868D01*
X167313579Y-69769870D01*
X167122403Y-69849058D01*
X166950342Y-69964024D01*
X166804024Y-70110342D01*
X166689058Y-70282403D01*
X166609870Y-70473579D01*
X166609868Y-70473587D01*
X166569500Y-70676530D01*
X153430499Y-70676530D01*
X153390130Y-70473580D01*
X153310941Y-70282402D01*
X153195977Y-70110345D01*
X153195975Y-70110342D01*
X153049657Y-69964024D01*
X152887809Y-69855882D01*
X152877598Y-69849059D01*
X152772860Y-69805675D01*
X152686420Y-69769870D01*
X152686412Y-69769868D01*
X152483469Y-69729500D01*
X152483465Y-69729500D01*
X152276535Y-69729500D01*
X152276530Y-69729500D01*
X152073587Y-69769868D01*
X152073579Y-69769870D01*
X151882403Y-69849058D01*
X151710342Y-69964024D01*
X151564024Y-70110342D01*
X151449058Y-70282403D01*
X151369870Y-70473579D01*
X151369868Y-70473587D01*
X151329500Y-70676530D01*
X147934274Y-70676530D01*
X147113628Y-69855884D01*
X147097151Y-69849059D01*
X147039937Y-69825360D01*
X147039936Y-69825360D01*
X138134466Y-69825360D01*
X138067427Y-69805675D01*
X138046785Y-69789041D01*
X137113628Y-68855884D01*
X137039937Y-68825360D01*
X137039936Y-68825360D01*
X131845356Y-68825360D01*
X131833522Y-68825359D01*
X131833514Y-68825356D01*
X131810459Y-68825358D01*
X131804001Y-68825358D01*
X131803995Y-68825356D01*
X131783391Y-68823632D01*
X131716004Y-68812270D01*
X131677027Y-68798737D01*
X131626338Y-68770957D01*
X131593959Y-68745383D01*
X131555192Y-68702510D01*
X131532997Y-68667729D01*
X131510442Y-68614506D01*
X131500888Y-68574368D01*
X131499026Y-68546420D01*
X131497045Y-68516688D01*
X131501188Y-68475650D01*
X131518998Y-68410731D01*
X131526962Y-68389531D01*
X131539288Y-68364071D01*
X144049499Y-68364071D01*
X144074497Y-68489738D01*
X144074499Y-68489744D01*
X144123533Y-68608124D01*
X144123538Y-68608133D01*
X144194723Y-68714668D01*
X144194726Y-68714672D01*
X144285327Y-68805273D01*
X144285331Y-68805276D01*
X144391866Y-68876461D01*
X144391872Y-68876464D01*
X144391873Y-68876465D01*
X144510256Y-68925501D01*
X144510260Y-68925501D01*
X144510261Y-68925502D01*
X144635928Y-68950500D01*
X144635931Y-68950500D01*
X144764071Y-68950500D01*
X144848615Y-68933682D01*
X144889744Y-68925501D01*
X145008127Y-68876465D01*
X145114669Y-68805276D01*
X145121209Y-68798736D01*
X145133127Y-68786819D01*
X145194450Y-68753334D01*
X145220808Y-68750500D01*
X145779192Y-68750500D01*
X145846231Y-68770185D01*
X145866873Y-68786819D01*
X145885327Y-68805273D01*
X145885331Y-68805276D01*
X145991866Y-68876461D01*
X145991872Y-68876464D01*
X145991873Y-68876465D01*
X146110256Y-68925501D01*
X146110260Y-68925501D01*
X146110261Y-68925502D01*
X146235928Y-68950500D01*
X146235931Y-68950500D01*
X146364071Y-68950500D01*
X146448615Y-68933682D01*
X146489744Y-68925501D01*
X146608127Y-68876465D01*
X146714669Y-68805276D01*
X146805276Y-68714669D01*
X146876465Y-68608127D01*
X146925501Y-68489744D01*
X146950500Y-68364069D01*
X146950500Y-68235931D01*
X146950500Y-68235928D01*
X146934329Y-68154635D01*
X146930728Y-68136530D01*
X151329500Y-68136530D01*
X151329500Y-68343469D01*
X151369868Y-68546412D01*
X151369870Y-68546420D01*
X151395432Y-68608133D01*
X151449059Y-68737598D01*
X151464630Y-68760902D01*
X151564024Y-68909657D01*
X151710342Y-69055975D01*
X151710345Y-69055977D01*
X151882402Y-69170941D01*
X152073580Y-69250130D01*
X152250549Y-69285331D01*
X152276530Y-69290499D01*
X152276534Y-69290500D01*
X152276535Y-69290500D01*
X152483466Y-69290500D01*
X152483467Y-69290499D01*
X152686420Y-69250130D01*
X152877598Y-69170941D01*
X153049655Y-69055977D01*
X153195977Y-68909655D01*
X153310941Y-68737598D01*
X153390130Y-68546420D01*
X153430500Y-68343465D01*
X153430500Y-68136535D01*
X153430499Y-68136530D01*
X166569500Y-68136530D01*
X166569500Y-68343469D01*
X166609868Y-68546412D01*
X166609870Y-68546420D01*
X166635432Y-68608133D01*
X166689059Y-68737598D01*
X166704630Y-68760902D01*
X166804024Y-68909657D01*
X166950342Y-69055975D01*
X166950345Y-69055977D01*
X167122402Y-69170941D01*
X167313580Y-69250130D01*
X167490549Y-69285331D01*
X167516530Y-69290499D01*
X167516534Y-69290500D01*
X167516535Y-69290500D01*
X167723466Y-69290500D01*
X167723467Y-69290499D01*
X167926420Y-69250130D01*
X168117598Y-69170941D01*
X168289655Y-69055977D01*
X168435977Y-68909655D01*
X168550941Y-68737598D01*
X168630130Y-68546420D01*
X168670500Y-68343465D01*
X168670500Y-68136535D01*
X168630130Y-67933580D01*
X168550941Y-67742402D01*
X168435977Y-67570345D01*
X168435975Y-67570342D01*
X168289657Y-67424024D01*
X168203626Y-67366541D01*
X168117598Y-67309059D01*
X167926420Y-67229870D01*
X167926412Y-67229868D01*
X167723469Y-67189500D01*
X167723465Y-67189500D01*
X167516535Y-67189500D01*
X167516530Y-67189500D01*
X167313587Y-67229868D01*
X167313579Y-67229870D01*
X167122403Y-67309058D01*
X166950342Y-67424024D01*
X166804024Y-67570342D01*
X166689058Y-67742403D01*
X166609870Y-67933579D01*
X166609868Y-67933587D01*
X166569500Y-68136530D01*
X153430499Y-68136530D01*
X153390130Y-67933580D01*
X153310941Y-67742402D01*
X153195977Y-67570345D01*
X153195975Y-67570342D01*
X153049657Y-67424024D01*
X152963626Y-67366541D01*
X152877598Y-67309059D01*
X152686420Y-67229870D01*
X152686412Y-67229868D01*
X152483469Y-67189500D01*
X152483465Y-67189500D01*
X152276535Y-67189500D01*
X152276530Y-67189500D01*
X152073587Y-67229868D01*
X152073579Y-67229870D01*
X151882403Y-67309058D01*
X151710342Y-67424024D01*
X151564024Y-67570342D01*
X151449058Y-67742403D01*
X151369870Y-67933579D01*
X151369868Y-67933587D01*
X151329500Y-68136530D01*
X146930728Y-68136530D01*
X146925502Y-68110261D01*
X146925501Y-68110260D01*
X146925501Y-68110256D01*
X146876465Y-67991873D01*
X146876464Y-67991872D01*
X146876461Y-67991866D01*
X146805276Y-67885331D01*
X146805273Y-67885327D01*
X146714672Y-67794726D01*
X146714668Y-67794723D01*
X146608133Y-67723538D01*
X146608124Y-67723533D01*
X146489744Y-67674499D01*
X146489738Y-67674497D01*
X146364071Y-67649500D01*
X146364069Y-67649500D01*
X146235931Y-67649500D01*
X146235929Y-67649500D01*
X146110261Y-67674497D01*
X146110255Y-67674499D01*
X145991875Y-67723533D01*
X145991866Y-67723538D01*
X145885331Y-67794723D01*
X145885327Y-67794726D01*
X145866873Y-67813181D01*
X145805550Y-67846666D01*
X145779192Y-67849500D01*
X145220808Y-67849500D01*
X145153769Y-67829815D01*
X145133127Y-67813181D01*
X145114672Y-67794726D01*
X145114668Y-67794723D01*
X145008133Y-67723538D01*
X145008124Y-67723533D01*
X144889744Y-67674499D01*
X144889738Y-67674497D01*
X144764071Y-67649500D01*
X144764069Y-67649500D01*
X144635931Y-67649500D01*
X144635929Y-67649500D01*
X144510261Y-67674497D01*
X144510255Y-67674499D01*
X144391875Y-67723533D01*
X144391866Y-67723538D01*
X144285331Y-67794723D01*
X144285327Y-67794726D01*
X144194726Y-67885327D01*
X144194723Y-67885331D01*
X144123538Y-67991866D01*
X144123533Y-67991875D01*
X144074499Y-68110255D01*
X144074497Y-68110261D01*
X144049500Y-68235928D01*
X144049500Y-68235931D01*
X144049500Y-68364069D01*
X144049500Y-68364071D01*
X144049499Y-68364071D01*
X131539288Y-68364071D01*
X131961353Y-67492287D01*
X131963140Y-67488745D01*
X131997086Y-67424024D01*
X132430500Y-66597675D01*
X132432350Y-66594282D01*
X132928167Y-65718644D01*
X132930116Y-65715325D01*
X133002524Y-65596530D01*
X151329500Y-65596530D01*
X151329500Y-65803469D01*
X151369868Y-66006412D01*
X151369870Y-66006420D01*
X151449059Y-66197598D01*
X151501753Y-66276461D01*
X151564024Y-66369657D01*
X151710342Y-66515975D01*
X151710345Y-66515977D01*
X151882402Y-66630941D01*
X152073580Y-66710130D01*
X152276530Y-66750499D01*
X152276534Y-66750500D01*
X152276535Y-66750500D01*
X152483466Y-66750500D01*
X152483467Y-66750499D01*
X152686420Y-66710130D01*
X152877598Y-66630941D01*
X153049655Y-66515977D01*
X153195977Y-66369655D01*
X153310941Y-66197598D01*
X153390130Y-66006420D01*
X153430500Y-65803465D01*
X153430500Y-65596535D01*
X153430499Y-65596530D01*
X166569500Y-65596530D01*
X166569500Y-65803469D01*
X166609868Y-66006412D01*
X166609870Y-66006420D01*
X166689059Y-66197598D01*
X166741753Y-66276461D01*
X166804024Y-66369657D01*
X166950342Y-66515975D01*
X166950345Y-66515977D01*
X167122402Y-66630941D01*
X167313580Y-66710130D01*
X167516530Y-66750499D01*
X167516534Y-66750500D01*
X167516535Y-66750500D01*
X167723466Y-66750500D01*
X167723467Y-66750499D01*
X167926420Y-66710130D01*
X168117598Y-66630941D01*
X168289655Y-66515977D01*
X168435977Y-66369655D01*
X168550941Y-66197598D01*
X168630130Y-66006420D01*
X168670500Y-65803465D01*
X168670500Y-65764071D01*
X170549499Y-65764071D01*
X170574497Y-65889738D01*
X170574499Y-65889744D01*
X170623533Y-66008124D01*
X170623538Y-66008133D01*
X170694723Y-66114668D01*
X170694726Y-66114672D01*
X170785327Y-66205273D01*
X170785331Y-66205276D01*
X170891866Y-66276461D01*
X170891872Y-66276464D01*
X170891873Y-66276465D01*
X171010256Y-66325501D01*
X171010260Y-66325501D01*
X171010261Y-66325502D01*
X171135928Y-66350500D01*
X171135931Y-66350500D01*
X171264071Y-66350500D01*
X171348615Y-66333682D01*
X171389744Y-66325501D01*
X171508127Y-66276465D01*
X171614669Y-66205276D01*
X171705276Y-66114669D01*
X171776465Y-66008127D01*
X171825501Y-65889744D01*
X171842663Y-65803466D01*
X171850500Y-65764071D01*
X171850500Y-65635928D01*
X171825502Y-65510261D01*
X171825501Y-65510260D01*
X171825501Y-65510256D01*
X171783198Y-65408127D01*
X171776465Y-65391872D01*
X171771396Y-65384286D01*
X171750520Y-65317608D01*
X171750500Y-65315398D01*
X171750500Y-65164071D01*
X181449499Y-65164071D01*
X181474497Y-65289738D01*
X181474499Y-65289744D01*
X181523533Y-65408124D01*
X181523538Y-65408133D01*
X181594723Y-65514668D01*
X181594726Y-65514672D01*
X181685327Y-65605273D01*
X181685331Y-65605276D01*
X181791866Y-65676461D01*
X181791879Y-65676468D01*
X181862902Y-65705886D01*
X181910256Y-65725501D01*
X181919198Y-65727279D01*
X181981109Y-65759662D01*
X181982691Y-65761216D01*
X186013181Y-69791706D01*
X186046666Y-69853029D01*
X186049500Y-69879387D01*
X186049500Y-72314373D01*
X186029815Y-72381412D01*
X185977011Y-72427167D01*
X185907853Y-72437111D01*
X185847140Y-72410475D01*
X185775752Y-72352266D01*
X185604405Y-72262762D01*
X185449845Y-72218537D01*
X185418552Y-72209583D01*
X185418551Y-72209582D01*
X185418548Y-72209582D01*
X185329662Y-72201680D01*
X185305138Y-72199500D01*
X183894862Y-72199500D01*
X183882599Y-72200590D01*
X183781451Y-72209582D01*
X183595594Y-72262762D01*
X183424250Y-72352265D01*
X183274428Y-72474428D01*
X183152265Y-72624250D01*
X183062762Y-72795594D01*
X183009582Y-72981451D01*
X182999500Y-73094863D01*
X182999500Y-74505136D01*
X183009582Y-74618548D01*
X183062762Y-74804405D01*
X183062763Y-74804406D01*
X183152266Y-74975751D01*
X183173635Y-75001958D01*
X183274428Y-75125571D01*
X183349339Y-75186652D01*
X183424249Y-75247734D01*
X183595594Y-75337237D01*
X183781448Y-75390417D01*
X183894862Y-75400500D01*
X183894870Y-75400500D01*
X185305132Y-75400500D01*
X185305138Y-75400500D01*
X185354735Y-75396090D01*
X185423254Y-75409760D01*
X185453397Y-75431922D01*
X187061985Y-77040510D01*
X187174164Y-77105276D01*
X187187515Y-77112984D01*
X187327525Y-77150500D01*
X187327526Y-77150500D01*
X187472474Y-77150500D01*
X187715399Y-77150500D01*
X187782438Y-77170185D01*
X187784252Y-77171373D01*
X187791873Y-77176465D01*
X187910256Y-77225501D01*
X187910260Y-77225501D01*
X187910261Y-77225502D01*
X188035928Y-77250500D01*
X188035931Y-77250500D01*
X188164071Y-77250500D01*
X188248615Y-77233682D01*
X188289744Y-77225501D01*
X188408127Y-77176465D01*
X188417526Y-77170185D01*
X188514671Y-77105275D01*
X188514672Y-77105273D01*
X188605273Y-77014672D01*
X188605276Y-77014669D01*
X188676465Y-76908127D01*
X188725501Y-76789744D01*
X188750500Y-76664069D01*
X188750500Y-76535931D01*
X188750500Y-76535928D01*
X188725502Y-76410261D01*
X188725501Y-76410260D01*
X188725501Y-76410256D01*
X188676465Y-76291873D01*
X188676464Y-76291872D01*
X188676461Y-76291866D01*
X188605276Y-76185331D01*
X188605273Y-76185327D01*
X188514672Y-76094726D01*
X188514668Y-76094723D01*
X188408133Y-76023538D01*
X188408124Y-76023533D01*
X188289744Y-75974499D01*
X188289738Y-75974497D01*
X188164071Y-75949500D01*
X188164069Y-75949500D01*
X188035931Y-75949500D01*
X188035929Y-75949500D01*
X187910261Y-75974497D01*
X187910255Y-75974499D01*
X187791876Y-76023533D01*
X187791873Y-76023534D01*
X187791873Y-76023535D01*
X187784287Y-76028603D01*
X187766242Y-76034253D01*
X187750334Y-76044477D01*
X187719371Y-76048928D01*
X187717611Y-76049480D01*
X187715399Y-76049500D01*
X187679387Y-76049500D01*
X187612348Y-76029815D01*
X187591706Y-76013181D01*
X186231922Y-74653397D01*
X186198437Y-74592074D01*
X186196090Y-74554735D01*
X186200500Y-74505138D01*
X186200500Y-73424196D01*
X186220185Y-73357157D01*
X186272989Y-73311402D01*
X186342147Y-73301458D01*
X186371950Y-73309634D01*
X186410256Y-73325501D01*
X186410260Y-73325501D01*
X186410261Y-73325502D01*
X186535928Y-73350500D01*
X186535931Y-73350500D01*
X186664071Y-73350500D01*
X186748615Y-73333682D01*
X186789744Y-73325501D01*
X186908127Y-73276465D01*
X187014669Y-73205276D01*
X187105276Y-73114669D01*
X187176465Y-73008127D01*
X187225501Y-72889744D01*
X187250500Y-72764069D01*
X187250500Y-72635931D01*
X187250500Y-72635928D01*
X187225502Y-72510261D01*
X187225501Y-72510260D01*
X187225501Y-72510256D01*
X187195203Y-72437111D01*
X187176465Y-72391872D01*
X187171396Y-72384286D01*
X187150520Y-72317608D01*
X187150500Y-72315398D01*
X187150500Y-69527527D01*
X187150500Y-69527525D01*
X187112984Y-69387515D01*
X187085269Y-69339511D01*
X187040510Y-69261985D01*
X183638015Y-65859490D01*
X182761216Y-64982691D01*
X182727731Y-64921368D01*
X182727279Y-64919197D01*
X182725501Y-64910256D01*
X182701681Y-64852749D01*
X182676468Y-64791879D01*
X182676461Y-64791866D01*
X182605276Y-64685331D01*
X182605273Y-64685327D01*
X182514672Y-64594726D01*
X182514668Y-64594723D01*
X182408133Y-64523538D01*
X182408124Y-64523533D01*
X182289744Y-64474499D01*
X182289738Y-64474497D01*
X182164071Y-64449500D01*
X182164069Y-64449500D01*
X182035931Y-64449500D01*
X182035929Y-64449500D01*
X181910261Y-64474497D01*
X181910255Y-64474499D01*
X181791875Y-64523533D01*
X181791866Y-64523538D01*
X181685331Y-64594723D01*
X181685327Y-64594726D01*
X181594726Y-64685327D01*
X181594723Y-64685331D01*
X181523538Y-64791866D01*
X181523533Y-64791875D01*
X181474499Y-64910255D01*
X181474497Y-64910261D01*
X181449500Y-65035928D01*
X181449500Y-65035931D01*
X181449500Y-65164069D01*
X181449500Y-65164071D01*
X181449499Y-65164071D01*
X171750500Y-65164071D01*
X171750500Y-64879386D01*
X171770185Y-64812347D01*
X171786819Y-64791705D01*
X172487583Y-64090941D01*
X173280890Y-63297634D01*
X173353364Y-63172105D01*
X173359153Y-63150500D01*
X173390880Y-63032095D01*
X173390880Y-61424980D01*
X173410565Y-61357941D01*
X173411739Y-61356148D01*
X173416845Y-61348507D01*
X173465881Y-61230124D01*
X173478637Y-61165997D01*
X173490880Y-61104451D01*
X173490880Y-60976308D01*
X173465882Y-60850641D01*
X173465881Y-60850640D01*
X173465881Y-60850636D01*
X173416845Y-60732253D01*
X173416844Y-60732252D01*
X173416841Y-60732246D01*
X173345656Y-60625711D01*
X173345653Y-60625707D01*
X173255052Y-60535106D01*
X173255048Y-60535103D01*
X173148513Y-60463918D01*
X173148504Y-60463913D01*
X173030124Y-60414879D01*
X173030118Y-60414877D01*
X172904451Y-60389880D01*
X172904449Y-60389880D01*
X172776311Y-60389880D01*
X172776309Y-60389880D01*
X172650641Y-60414877D01*
X172650635Y-60414879D01*
X172527062Y-60466064D01*
X172526011Y-60466976D01*
X172495118Y-60471417D01*
X172464546Y-60477782D01*
X172460811Y-60476350D01*
X172456853Y-60476920D01*
X172428452Y-60463949D01*
X172399303Y-60452779D01*
X172396935Y-60449556D01*
X172393297Y-60447895D01*
X172376417Y-60421629D01*
X172357934Y-60396472D01*
X172357062Y-60391511D01*
X172355523Y-60389117D01*
X172351922Y-60364071D01*
X173849499Y-60364071D01*
X173874497Y-60489738D01*
X173874499Y-60489744D01*
X173923533Y-60608124D01*
X173923538Y-60608133D01*
X173994723Y-60714668D01*
X173994726Y-60714672D01*
X174085327Y-60805273D01*
X174085331Y-60805276D01*
X174191866Y-60876461D01*
X174191872Y-60876464D01*
X174191873Y-60876465D01*
X174310256Y-60925501D01*
X174310260Y-60925501D01*
X174310261Y-60925502D01*
X174435928Y-60950500D01*
X174435931Y-60950500D01*
X174564071Y-60950500D01*
X174648615Y-60933682D01*
X174689744Y-60925501D01*
X174808127Y-60876465D01*
X174914669Y-60805276D01*
X174973507Y-60746437D01*
X175034828Y-60712954D01*
X175061187Y-60710120D01*
X176338813Y-60710120D01*
X176405852Y-60729805D01*
X176426489Y-60746434D01*
X176480055Y-60800000D01*
X176485332Y-60805277D01*
X176591866Y-60876461D01*
X176591872Y-60876464D01*
X176591873Y-60876465D01*
X176710256Y-60925501D01*
X176710260Y-60925501D01*
X176710261Y-60925502D01*
X176835928Y-60950500D01*
X176835931Y-60950500D01*
X176964071Y-60950500D01*
X177048615Y-60933682D01*
X177089744Y-60925501D01*
X177208127Y-60876465D01*
X177314669Y-60805276D01*
X177405276Y-60714669D01*
X177476465Y-60608127D01*
X177525501Y-60489744D01*
X177540393Y-60414879D01*
X177550500Y-60364071D01*
X177550500Y-60235928D01*
X177525502Y-60110261D01*
X177525501Y-60110260D01*
X177525501Y-60110256D01*
X177476465Y-59991873D01*
X177476464Y-59991872D01*
X177476461Y-59991866D01*
X177405276Y-59885331D01*
X177405273Y-59885327D01*
X177314672Y-59794726D01*
X177314668Y-59794723D01*
X177208133Y-59723538D01*
X177208124Y-59723533D01*
X177089744Y-59674499D01*
X177089738Y-59674497D01*
X176964071Y-59649500D01*
X176964069Y-59649500D01*
X176835931Y-59649500D01*
X176835929Y-59649500D01*
X176710261Y-59674497D01*
X176710255Y-59674499D01*
X176591875Y-59723533D01*
X176591866Y-59723538D01*
X176495061Y-59788222D01*
X176428383Y-59809100D01*
X176426170Y-59809120D01*
X174973830Y-59809120D01*
X174906791Y-59789435D01*
X174904939Y-59788222D01*
X174808133Y-59723538D01*
X174808124Y-59723533D01*
X174689744Y-59674499D01*
X174689738Y-59674497D01*
X174564071Y-59649500D01*
X174564069Y-59649500D01*
X174435931Y-59649500D01*
X174435929Y-59649500D01*
X174310261Y-59674497D01*
X174310255Y-59674499D01*
X174191875Y-59723533D01*
X174191866Y-59723538D01*
X174085331Y-59794723D01*
X174085327Y-59794726D01*
X173994726Y-59885327D01*
X173994723Y-59885331D01*
X173923538Y-59991866D01*
X173923533Y-59991875D01*
X173874499Y-60110255D01*
X173874497Y-60110261D01*
X173849500Y-60235928D01*
X173849500Y-60235931D01*
X173849500Y-60364069D01*
X173849500Y-60364071D01*
X173849499Y-60364071D01*
X172351922Y-60364071D01*
X172350500Y-60354182D01*
X172350500Y-59484600D01*
X172370185Y-59417561D01*
X172371359Y-59415768D01*
X172376465Y-59408127D01*
X172425501Y-59289744D01*
X172450500Y-59164069D01*
X172450500Y-59035931D01*
X172450500Y-59035928D01*
X172425502Y-58910261D01*
X172425501Y-58910260D01*
X172425501Y-58910256D01*
X172376465Y-58791873D01*
X172376464Y-58791872D01*
X172376461Y-58791866D01*
X172305276Y-58685331D01*
X172305273Y-58685327D01*
X172214672Y-58594726D01*
X172214668Y-58594723D01*
X172108133Y-58523538D01*
X172108124Y-58523533D01*
X171989744Y-58474499D01*
X171989738Y-58474497D01*
X171864071Y-58449500D01*
X171864069Y-58449500D01*
X171735931Y-58449500D01*
X171735929Y-58449500D01*
X171610261Y-58474497D01*
X171610255Y-58474499D01*
X171491875Y-58523533D01*
X171491866Y-58523538D01*
X171385331Y-58594723D01*
X171385327Y-58594726D01*
X171294726Y-58685327D01*
X171294723Y-58685331D01*
X171223538Y-58791866D01*
X171223533Y-58791875D01*
X171174499Y-58910255D01*
X171174497Y-58910261D01*
X171149500Y-59035928D01*
X171149500Y-59035931D01*
X171149500Y-59164069D01*
X171149500Y-59164071D01*
X171149499Y-59164071D01*
X171174497Y-59289738D01*
X171174499Y-59289744D01*
X171223533Y-59408124D01*
X171223534Y-59408126D01*
X171223535Y-59408127D01*
X171228600Y-59415708D01*
X171249480Y-59482383D01*
X171249500Y-59484600D01*
X171249500Y-62215398D01*
X171229815Y-62282437D01*
X171228604Y-62284286D01*
X171223534Y-62291872D01*
X171174499Y-62410255D01*
X171174497Y-62410261D01*
X171149500Y-62535928D01*
X171149500Y-62535931D01*
X171149500Y-62664069D01*
X171149500Y-62664071D01*
X171149499Y-62664071D01*
X171174497Y-62789738D01*
X171174499Y-62789744D01*
X171223533Y-62908124D01*
X171223538Y-62908133D01*
X171294723Y-63014668D01*
X171294726Y-63014672D01*
X171385327Y-63105273D01*
X171385331Y-63105276D01*
X171491866Y-63176461D01*
X171491879Y-63176468D01*
X171570125Y-63208878D01*
X171624529Y-63252718D01*
X171646594Y-63319012D01*
X171629315Y-63386712D01*
X171610354Y-63411120D01*
X170759491Y-64261983D01*
X170759489Y-64261986D01*
X170687016Y-64387514D01*
X170687016Y-64387515D01*
X170649500Y-64527525D01*
X170649500Y-64527527D01*
X170649500Y-65315398D01*
X170629815Y-65382437D01*
X170628604Y-65384286D01*
X170623534Y-65391872D01*
X170574499Y-65510255D01*
X170574497Y-65510261D01*
X170549500Y-65635928D01*
X170549500Y-65635931D01*
X170549500Y-65764069D01*
X170549500Y-65764071D01*
X170549499Y-65764071D01*
X168670500Y-65764071D01*
X168670500Y-65596535D01*
X168630130Y-65393580D01*
X168550941Y-65202402D01*
X168435977Y-65030345D01*
X168435975Y-65030342D01*
X168289657Y-64884024D01*
X168203626Y-64826541D01*
X168117598Y-64769059D01*
X167926420Y-64689870D01*
X167926412Y-64689868D01*
X167723469Y-64649500D01*
X167723465Y-64649500D01*
X167516535Y-64649500D01*
X167516530Y-64649500D01*
X167313587Y-64689868D01*
X167313579Y-64689870D01*
X167122403Y-64769058D01*
X166950342Y-64884024D01*
X166804024Y-65030342D01*
X166689058Y-65202403D01*
X166609870Y-65393579D01*
X166609868Y-65393587D01*
X166569500Y-65596530D01*
X153430499Y-65596530D01*
X153390130Y-65393580D01*
X153310941Y-65202402D01*
X153195977Y-65030345D01*
X153195975Y-65030342D01*
X153049657Y-64884024D01*
X152963626Y-64826541D01*
X152877598Y-64769059D01*
X152686420Y-64689870D01*
X152686412Y-64689868D01*
X152483469Y-64649500D01*
X152483465Y-64649500D01*
X152276535Y-64649500D01*
X152276530Y-64649500D01*
X152073587Y-64689868D01*
X152073579Y-64689870D01*
X151882403Y-64769058D01*
X151710342Y-64884024D01*
X151564024Y-65030342D01*
X151449058Y-65202403D01*
X151369870Y-65393579D01*
X151369868Y-65393587D01*
X151329500Y-65596530D01*
X133002524Y-65596530D01*
X133453842Y-64856087D01*
X133455930Y-64852783D01*
X134007014Y-64010851D01*
X134009181Y-64007655D01*
X134587075Y-63183863D01*
X134589343Y-63180738D01*
X134682578Y-63056530D01*
X151329500Y-63056530D01*
X151329500Y-63263469D01*
X151369868Y-63466412D01*
X151369870Y-63466420D01*
X151449058Y-63657596D01*
X151564024Y-63829657D01*
X151710342Y-63975975D01*
X151710345Y-63975977D01*
X151882402Y-64090941D01*
X152073580Y-64170130D01*
X152262609Y-64207730D01*
X152276530Y-64210499D01*
X152276534Y-64210500D01*
X152276535Y-64210500D01*
X152483466Y-64210500D01*
X152483467Y-64210499D01*
X152686420Y-64170130D01*
X152877598Y-64090941D01*
X153049655Y-63975977D01*
X153195977Y-63829655D01*
X153310941Y-63657598D01*
X153390130Y-63466420D01*
X153430500Y-63263465D01*
X153430500Y-63056535D01*
X153413087Y-62968995D01*
X157099499Y-62968995D01*
X157126418Y-63104322D01*
X157126421Y-63104332D01*
X157179221Y-63231804D01*
X157179228Y-63231817D01*
X157255885Y-63346541D01*
X157255888Y-63346545D01*
X157353454Y-63444111D01*
X157353458Y-63444114D01*
X157468182Y-63520771D01*
X157468195Y-63520778D01*
X157595667Y-63573578D01*
X157595672Y-63573580D01*
X157595676Y-63573580D01*
X157595677Y-63573581D01*
X157731004Y-63600500D01*
X157731007Y-63600500D01*
X157868995Y-63600500D01*
X157960041Y-63582389D01*
X158004328Y-63573580D01*
X158131811Y-63520775D01*
X158246542Y-63444114D01*
X158344114Y-63346542D01*
X158420775Y-63231811D01*
X158473580Y-63104328D01*
X158483088Y-63056530D01*
X166569500Y-63056530D01*
X166569500Y-63263469D01*
X166609868Y-63466412D01*
X166609870Y-63466420D01*
X166689058Y-63657596D01*
X166804024Y-63829657D01*
X166950342Y-63975975D01*
X166950345Y-63975977D01*
X167122402Y-64090941D01*
X167313580Y-64170130D01*
X167502609Y-64207730D01*
X167516530Y-64210499D01*
X167516534Y-64210500D01*
X167516535Y-64210500D01*
X167723466Y-64210500D01*
X167723467Y-64210499D01*
X167926420Y-64170130D01*
X168117598Y-64090941D01*
X168289655Y-63975977D01*
X168435977Y-63829655D01*
X168550941Y-63657598D01*
X168630130Y-63466420D01*
X168670500Y-63263465D01*
X168670500Y-63056535D01*
X168630130Y-62853580D01*
X168550941Y-62662402D01*
X168435977Y-62490345D01*
X168435975Y-62490342D01*
X168289657Y-62344024D01*
X168153448Y-62253013D01*
X168117598Y-62229059D01*
X168108921Y-62225465D01*
X167926420Y-62149870D01*
X167926412Y-62149868D01*
X167723469Y-62109500D01*
X167723465Y-62109500D01*
X167516535Y-62109500D01*
X167516530Y-62109500D01*
X167313587Y-62149868D01*
X167313579Y-62149870D01*
X167122403Y-62229058D01*
X166950342Y-62344024D01*
X166804024Y-62490342D01*
X166689058Y-62662403D01*
X166609870Y-62853579D01*
X166609868Y-62853587D01*
X166569500Y-63056530D01*
X158483088Y-63056530D01*
X158489111Y-63026251D01*
X158500500Y-62968995D01*
X158500500Y-60831004D01*
X158473581Y-60695677D01*
X158473580Y-60695676D01*
X158473580Y-60695672D01*
X158444134Y-60624584D01*
X158420775Y-60568189D01*
X158420774Y-60568187D01*
X158386258Y-60516530D01*
X166569500Y-60516530D01*
X166569500Y-60723469D01*
X166609868Y-60926412D01*
X166609870Y-60926420D01*
X166684031Y-61105461D01*
X166689059Y-61117598D01*
X166730134Y-61179071D01*
X166804024Y-61289657D01*
X166950342Y-61435975D01*
X166950345Y-61435977D01*
X167122402Y-61550941D01*
X167313580Y-61630130D01*
X167516530Y-61670499D01*
X167516534Y-61670500D01*
X167516535Y-61670500D01*
X167723466Y-61670500D01*
X167723467Y-61670499D01*
X167926420Y-61630130D01*
X168117598Y-61550941D01*
X168289655Y-61435977D01*
X168435977Y-61289655D01*
X168550941Y-61117598D01*
X168630130Y-60926420D01*
X168670500Y-60723465D01*
X168670500Y-60516535D01*
X168630130Y-60313580D01*
X168550941Y-60122402D01*
X168435977Y-59950345D01*
X168435975Y-59950342D01*
X168289657Y-59804024D01*
X168153229Y-59712867D01*
X168117598Y-59689059D01*
X168082447Y-59674499D01*
X167926420Y-59609870D01*
X167926412Y-59609868D01*
X167723469Y-59569500D01*
X167723465Y-59569500D01*
X167516535Y-59569500D01*
X167516530Y-59569500D01*
X167313587Y-59609868D01*
X167313579Y-59609870D01*
X167122403Y-59689058D01*
X166950342Y-59804024D01*
X166804024Y-59950342D01*
X166689058Y-60122403D01*
X166609870Y-60313579D01*
X166609868Y-60313587D01*
X166569500Y-60516530D01*
X158386258Y-60516530D01*
X158344114Y-60453458D01*
X158344111Y-60453454D01*
X158246545Y-60355888D01*
X158246541Y-60355885D01*
X158131817Y-60279228D01*
X158131804Y-60279221D01*
X158004332Y-60226421D01*
X158004322Y-60226418D01*
X157868995Y-60199500D01*
X157868993Y-60199500D01*
X157731007Y-60199500D01*
X157731005Y-60199500D01*
X157595677Y-60226418D01*
X157595667Y-60226421D01*
X157468195Y-60279221D01*
X157468182Y-60279228D01*
X157353458Y-60355885D01*
X157353454Y-60355888D01*
X157255888Y-60453454D01*
X157255885Y-60453458D01*
X157179228Y-60568182D01*
X157179221Y-60568195D01*
X157126421Y-60695667D01*
X157126418Y-60695677D01*
X157099500Y-60831004D01*
X157099500Y-60831007D01*
X157099500Y-62968993D01*
X157099500Y-62968995D01*
X157099499Y-62968995D01*
X153413087Y-62968995D01*
X153390130Y-62853580D01*
X153310941Y-62662402D01*
X153195977Y-62490345D01*
X153195975Y-62490342D01*
X153049657Y-62344024D01*
X152913448Y-62253013D01*
X152877598Y-62229059D01*
X152868921Y-62225465D01*
X152686420Y-62149870D01*
X152686412Y-62149868D01*
X152483469Y-62109500D01*
X152483465Y-62109500D01*
X152276535Y-62109500D01*
X152276530Y-62109500D01*
X152073587Y-62149868D01*
X152073579Y-62149870D01*
X151882403Y-62229058D01*
X151710342Y-62344024D01*
X151564024Y-62490342D01*
X151449058Y-62662403D01*
X151369870Y-62853579D01*
X151369868Y-62853587D01*
X151329500Y-63056530D01*
X134682578Y-63056530D01*
X135193420Y-62375985D01*
X135195806Y-62372910D01*
X135820464Y-61594226D01*
X135834004Y-61579862D01*
X135876882Y-61541087D01*
X135906297Y-61521317D01*
X135906416Y-61521260D01*
X135928729Y-61510526D01*
X135951162Y-61499736D01*
X135984969Y-61489094D01*
X136034105Y-61481087D01*
X136069543Y-61480446D01*
X136082745Y-61482109D01*
X136118941Y-61486669D01*
X136119040Y-61486696D01*
X136119092Y-61486688D01*
X136119093Y-61486688D01*
X136153108Y-61496078D01*
X136198729Y-61516023D01*
X136228840Y-61534717D01*
X136274220Y-61572862D01*
X136286969Y-61585242D01*
X136327008Y-61630129D01*
X136385205Y-61695374D01*
X136385214Y-61695383D01*
X136620858Y-61902779D01*
X136620866Y-61902785D01*
X136879742Y-62080332D01*
X136879744Y-62080333D01*
X136879750Y-62080337D01*
X137158114Y-62225464D01*
X137158116Y-62225465D01*
X137451904Y-62336054D01*
X137451909Y-62336055D01*
X137451914Y-62336057D01*
X137756882Y-62410509D01*
X138068591Y-62447739D01*
X138382515Y-62447208D01*
X138694097Y-62408922D01*
X138998811Y-62333438D01*
X139292234Y-62221851D01*
X139570106Y-62075782D01*
X139828391Y-61897351D01*
X140063340Y-61689150D01*
X140271541Y-61454201D01*
X140449972Y-61195916D01*
X140596041Y-60918044D01*
X140707627Y-60624621D01*
X140783112Y-60319907D01*
X140806110Y-60132741D01*
X140833823Y-60068604D01*
X140891813Y-60029630D01*
X140961668Y-60028196D01*
X141021210Y-60064755D01*
X141029495Y-60074970D01*
X141107310Y-60182073D01*
X141240927Y-60315690D01*
X141393801Y-60426760D01*
X141446191Y-60453454D01*
X141562163Y-60512545D01*
X141562165Y-60512545D01*
X141562168Y-60512547D01*
X141631588Y-60535103D01*
X141741881Y-60570940D01*
X141928514Y-60600500D01*
X141928519Y-60600500D01*
X142117486Y-60600500D01*
X142304118Y-60570940D01*
X142341148Y-60558908D01*
X142483832Y-60512547D01*
X142652199Y-60426760D01*
X142805073Y-60315690D01*
X142890687Y-60230075D01*
X142952006Y-60196593D01*
X142988096Y-60194141D01*
X143030933Y-60197513D01*
X143739861Y-59488584D01*
X143762667Y-59573694D01*
X143821910Y-59676306D01*
X143905694Y-59760090D01*
X144008306Y-59819333D01*
X144093414Y-59842137D01*
X143384485Y-60551065D01*
X143384485Y-60551066D01*
X143448243Y-60597388D01*
X143644589Y-60697432D01*
X143854164Y-60765526D01*
X144071819Y-60800000D01*
X144292181Y-60800000D01*
X144509835Y-60765526D01*
X144719410Y-60697432D01*
X144915760Y-60597386D01*
X144979513Y-60551066D01*
X144979514Y-60551066D01*
X144270585Y-59842138D01*
X144355694Y-59819333D01*
X144458306Y-59760090D01*
X144542090Y-59676306D01*
X144601333Y-59573694D01*
X144624137Y-59488585D01*
X145333065Y-60197513D01*
X145375906Y-60194142D01*
X145444283Y-60208506D01*
X145473315Y-60230078D01*
X145558927Y-60315690D01*
X145711801Y-60426760D01*
X145764191Y-60453454D01*
X145880163Y-60512545D01*
X145880165Y-60512545D01*
X145880168Y-60512547D01*
X145949588Y-60535103D01*
X146059881Y-60570940D01*
X146246514Y-60600500D01*
X146246519Y-60600500D01*
X146435486Y-60600500D01*
X146622118Y-60570940D01*
X146659148Y-60558908D01*
X146801832Y-60512547D01*
X146970199Y-60426760D01*
X147116432Y-60320514D01*
X147182235Y-60297036D01*
X147250289Y-60312861D01*
X147298984Y-60362966D01*
X147302749Y-60370748D01*
X147347793Y-60472764D01*
X147347794Y-60472765D01*
X147427235Y-60552206D01*
X147530009Y-60597585D01*
X147555135Y-60600500D01*
X149444864Y-60600499D01*
X149444879Y-60600497D01*
X149444882Y-60600497D01*
X149469987Y-60597586D01*
X149469988Y-60597585D01*
X149469991Y-60597585D01*
X149572765Y-60552206D01*
X149608441Y-60516530D01*
X151329500Y-60516530D01*
X151329500Y-60723469D01*
X151369868Y-60926412D01*
X151369870Y-60926420D01*
X151444031Y-61105461D01*
X151449059Y-61117598D01*
X151490134Y-61179071D01*
X151564024Y-61289657D01*
X151710342Y-61435975D01*
X151710345Y-61435977D01*
X151882402Y-61550941D01*
X152073580Y-61630130D01*
X152276530Y-61670499D01*
X152276534Y-61670500D01*
X152276535Y-61670500D01*
X152483466Y-61670500D01*
X152483467Y-61670499D01*
X152686420Y-61630130D01*
X152877598Y-61550941D01*
X153049655Y-61435977D01*
X153195977Y-61289655D01*
X153310941Y-61117598D01*
X153390130Y-60926420D01*
X153405204Y-60850636D01*
X153415133Y-60800724D01*
X153426915Y-60741488D01*
X153430500Y-60723465D01*
X153430500Y-60516535D01*
X153390130Y-60313580D01*
X153310941Y-60122402D01*
X153195977Y-59950345D01*
X153195975Y-59950342D01*
X153049657Y-59804024D01*
X152913229Y-59712867D01*
X152877598Y-59689059D01*
X152842447Y-59674499D01*
X152686420Y-59609870D01*
X152686412Y-59609868D01*
X152483469Y-59569500D01*
X152483465Y-59569500D01*
X152276535Y-59569500D01*
X152276530Y-59569500D01*
X152073587Y-59609868D01*
X152073579Y-59609870D01*
X151882403Y-59689058D01*
X151710342Y-59804024D01*
X151564024Y-59950342D01*
X151449058Y-60122403D01*
X151369870Y-60313579D01*
X151369868Y-60313587D01*
X151329500Y-60516530D01*
X149608441Y-60516530D01*
X149652206Y-60472765D01*
X149697585Y-60369991D01*
X149700500Y-60344865D01*
X149700499Y-58455136D01*
X149700497Y-58455117D01*
X149697586Y-58430012D01*
X149697585Y-58430010D01*
X149697585Y-58430009D01*
X149652206Y-58327235D01*
X149572765Y-58247794D01*
X149570206Y-58246664D01*
X149469992Y-58202415D01*
X149444865Y-58199500D01*
X147555143Y-58199500D01*
X147555117Y-58199502D01*
X147530012Y-58202413D01*
X147530008Y-58202415D01*
X147427235Y-58247793D01*
X147347794Y-58327234D01*
X147302748Y-58429252D01*
X147257661Y-58482628D01*
X147190875Y-58503155D01*
X147123593Y-58484316D01*
X147116445Y-58479494D01*
X146970199Y-58373240D01*
X146801836Y-58287454D01*
X146622118Y-58229059D01*
X146435486Y-58199500D01*
X146435481Y-58199500D01*
X146246519Y-58199500D01*
X146246514Y-58199500D01*
X146059881Y-58229059D01*
X145880163Y-58287454D01*
X145711800Y-58373240D01*
X145558928Y-58484309D01*
X145473316Y-58569921D01*
X145411992Y-58603405D01*
X145375906Y-58605857D01*
X145333065Y-58602485D01*
X144624137Y-59311413D01*
X144601333Y-59226306D01*
X144542090Y-59123694D01*
X144458306Y-59039910D01*
X144355694Y-58980667D01*
X144270583Y-58957861D01*
X144979513Y-58248932D01*
X144915756Y-58202611D01*
X144719410Y-58102567D01*
X144675727Y-58088374D01*
X144509835Y-58034473D01*
X144292181Y-58000000D01*
X144071819Y-58000000D01*
X143854164Y-58034473D01*
X143644589Y-58102567D01*
X143448233Y-58202616D01*
X143384485Y-58248931D01*
X143384485Y-58248932D01*
X144093414Y-58957861D01*
X144008306Y-58980667D01*
X143905694Y-59039910D01*
X143821910Y-59123694D01*
X143762667Y-59226306D01*
X143739861Y-59311414D01*
X143030932Y-58602485D01*
X142988093Y-58605857D01*
X142919716Y-58591493D01*
X142890683Y-58569920D01*
X142805074Y-58484311D01*
X142805071Y-58484309D01*
X142684226Y-58396509D01*
X142684224Y-58396507D01*
X142652202Y-58373242D01*
X142652201Y-58373241D01*
X142652199Y-58373240D01*
X142561909Y-58327235D01*
X142483836Y-58287454D01*
X142304118Y-58229059D01*
X142117486Y-58199500D01*
X142117481Y-58199500D01*
X141928519Y-58199500D01*
X141928514Y-58199500D01*
X141741881Y-58229059D01*
X141562163Y-58287454D01*
X141393800Y-58373240D01*
X141315661Y-58430012D01*
X141240927Y-58484310D01*
X141240925Y-58484312D01*
X141240924Y-58484312D01*
X141107312Y-58617924D01*
X141107312Y-58617925D01*
X141107310Y-58617927D01*
X141059610Y-58683579D01*
X140996240Y-58770800D01*
X140910454Y-58939164D01*
X140902872Y-58962499D01*
X140863433Y-59020173D01*
X140799073Y-59047369D01*
X140730227Y-59035453D01*
X140678753Y-58988207D01*
X140668892Y-58967861D01*
X140599655Y-58783927D01*
X140581787Y-58749655D01*
X140454527Y-58505560D01*
X140276973Y-58246672D01*
X140261472Y-58229060D01*
X140069574Y-58011025D01*
X140069560Y-58011012D01*
X140030903Y-57976530D01*
X151329500Y-57976530D01*
X151329500Y-58183469D01*
X151369868Y-58386412D01*
X151369870Y-58386420D01*
X151445878Y-58569920D01*
X151449059Y-58577598D01*
X151476006Y-58617927D01*
X151564024Y-58749657D01*
X151710342Y-58895975D01*
X151710345Y-58895977D01*
X151882402Y-59010941D01*
X152073580Y-59090130D01*
X152242319Y-59123694D01*
X152276530Y-59130499D01*
X152276534Y-59130500D01*
X152276535Y-59130500D01*
X152483466Y-59130500D01*
X152483467Y-59130499D01*
X152686420Y-59090130D01*
X152877598Y-59010941D01*
X153049655Y-58895977D01*
X153195977Y-58749655D01*
X153310941Y-58577598D01*
X153390130Y-58386420D01*
X153430500Y-58183465D01*
X153430500Y-57976535D01*
X153390130Y-57773580D01*
X153310941Y-57582402D01*
X153195977Y-57410345D01*
X153195975Y-57410342D01*
X153049657Y-57264024D01*
X152907901Y-57169307D01*
X152877598Y-57149059D01*
X152864817Y-57143765D01*
X152686420Y-57069870D01*
X152686412Y-57069868D01*
X152483469Y-57029500D01*
X152483465Y-57029500D01*
X152276535Y-57029500D01*
X152276530Y-57029500D01*
X152073587Y-57069868D01*
X152073579Y-57069870D01*
X151882403Y-57149058D01*
X151710342Y-57264024D01*
X151564024Y-57410342D01*
X151449058Y-57582403D01*
X151369870Y-57773579D01*
X151369868Y-57773587D01*
X151329500Y-57976530D01*
X140030903Y-57976530D01*
X139959154Y-57912531D01*
X139946744Y-57899746D01*
X139908935Y-57854731D01*
X139890258Y-57824625D01*
X139870315Y-57778976D01*
X139860917Y-57744820D01*
X139854701Y-57695401D01*
X139855345Y-57659980D01*
X139863359Y-57610815D01*
X139863387Y-57610726D01*
X139863382Y-57610680D01*
X139873998Y-57577020D01*
X139895586Y-57532136D01*
X139915342Y-57502734D01*
X139954357Y-57459578D01*
X139968764Y-57446002D01*
X140766847Y-56806306D01*
X140769983Y-56803877D01*
X141595442Y-56185799D01*
X141598677Y-56183460D01*
X142444013Y-55592964D01*
X142447349Y-55590714D01*
X142684349Y-55436530D01*
X151329500Y-55436530D01*
X151329500Y-55643469D01*
X151369868Y-55846412D01*
X151369870Y-55846420D01*
X151449058Y-56037596D01*
X151564024Y-56209657D01*
X151710342Y-56355975D01*
X151710345Y-56355977D01*
X151882402Y-56470941D01*
X152073580Y-56550130D01*
X152276530Y-56590499D01*
X152276534Y-56590500D01*
X152276535Y-56590500D01*
X152483466Y-56590500D01*
X152483467Y-56590499D01*
X152686420Y-56550130D01*
X152877598Y-56470941D01*
X153049655Y-56355977D01*
X153195977Y-56209655D01*
X153310941Y-56037598D01*
X153390130Y-55846420D01*
X153430500Y-55643465D01*
X153430500Y-55436535D01*
X153390130Y-55233580D01*
X153310941Y-55042402D01*
X153195977Y-54870345D01*
X153195975Y-54870342D01*
X153049657Y-54724024D01*
X152963626Y-54666541D01*
X152877598Y-54609059D01*
X152686420Y-54529870D01*
X152686412Y-54529868D01*
X152483469Y-54489500D01*
X152483465Y-54489500D01*
X152276535Y-54489500D01*
X152276530Y-54489500D01*
X152073587Y-54529868D01*
X152073579Y-54529870D01*
X151882403Y-54609058D01*
X151710342Y-54724024D01*
X151564024Y-54870342D01*
X151449058Y-55042403D01*
X151369870Y-55233579D01*
X151369868Y-55233587D01*
X151329500Y-55436530D01*
X142684349Y-55436530D01*
X143311695Y-55028400D01*
X143315053Y-55026293D01*
X144197497Y-54492757D01*
X144201001Y-54490717D01*
X145100492Y-53986592D01*
X145104004Y-53984700D01*
X146019668Y-53510476D01*
X146023237Y-53508701D01*
X146954023Y-53064925D01*
X146957676Y-53063256D01*
X147902602Y-52650394D01*
X147906249Y-52648872D01*
X148864254Y-52267388D01*
X148868017Y-52265960D01*
X149789687Y-51933708D01*
X149831739Y-51926360D01*
X151687192Y-51926360D01*
X151754231Y-51946045D01*
G37*
%TD.AperFunction*%
%TD*%
M02*
