M48
; DRILL file {KiCad 9.0.4} date 2025-10-28T17:49:17+0530
; FORMAT={-:-/ absolute / inch / decimal}
; #@! TF.CreationDate,2025-10-28T17:49:17+05:30
; #@! TF.GenerationSoftware,Kicad,Pcbnew,9.0.4
; #@! TF.FileFunction,Plated,1,2,PTH
FMAT,2
INCH
; #@! TA.AperFunction,Plated,PTH,ViaDrill
T1C0.0118
; #@! TA.AperFunction,Plated,PTH,ComponentDrill
T2C0.0354
; #@! TA.AperFunction,Plated,PTH,ComponentDrill
T3C0.0394
; #@! TA.AperFunction,Plated,PTH,ComponentDrill
T4C0.0512
%
G90
G05
T1
X5.3228Y-2.5433
X5.5866Y-2.4331
X5.6732Y-2.4646
X5.6969Y-2.689
X5.7598Y-2.689
X5.8661Y-2.5157
X6.2126Y-2.3976
X6.2126Y-2.4764
X6.2165Y-3.185
X6.3465Y-3.2008
X6.689Y-2.3976
X6.7402Y-2.5866
X6.7638Y-2.3268
X6.7638Y-2.4646
X6.7835Y-2.9764
X6.8047Y-2.4032
X6.815Y-2.9961
X6.8228Y-2.5276
X6.8307Y-2.248
X6.8701Y-2.1614
X6.8701Y-2.374
X6.9014Y-2.8971
X6.9488Y-2.7441
X6.9528Y-3.0079
X6.9646Y-2.374
X6.9843Y-3.0433
X7.0157Y-2.8071
X7.0157Y-2.8622
X7.0433Y-3.0709
X7.0591Y-2.8071
X7.06Y-2.8622
X7.0866Y-3.0512
X7.1024Y-2.8071
X7.1024Y-2.8622
X7.1102Y-2.5827
X7.1535Y-2.8543
X7.1693Y-2.563
X7.3465Y-2.8622
X7.4055Y-3.0157
T2
X5.5915Y-2.3386
X5.6765Y-2.3386
X5.7615Y-2.3386
X5.8465Y-2.3386
T3
X5.9992Y-2.0866
X5.9992Y-2.1866
X5.9992Y-2.2866
X5.9992Y-2.3866
X5.9992Y-2.4866
X5.9992Y-2.5866
X5.9992Y-2.6866
X5.9992Y-2.7866
X6.5992Y-2.0866
X6.5992Y-2.1866
X6.5992Y-2.2866
X6.5992Y-2.3866
X6.5992Y-2.4866
X6.5992Y-2.5866
X6.5992Y-2.6866
X6.5992Y-2.7866
T4
X7.2677Y-2.9055
X7.2677Y-3.1055
M30
